<?xml version="1.0" encoding="UTF-8"?>
<svg version="1.1" xmlns="http://www.w3.org/2000/svg" width="2048" height="2048">
<path d="M0 0 C675.84 0 1351.68 0 2048 0 C2048 675.84 2048 1351.68 2048 2048 C1372.16 2048 696.32 2048 0 2048 C0 1372.16 0 696.32 0 0 Z " fill="#FEFEFE" transform="translate(0,0)"/>
<path d="M0 0 C0.9061225 0.00092179 1.81224501 0.00184359 2.74582577 0.00279331 C3.78214138 0.00141865 4.81845699 0.00004398 5.88617611 -0.00137234 C7.60599445 0.00402058 7.60599445 0.00402058 9.3605566 0.00952244 C10.56039181 0.00937641 11.76022701 0.00923038 12.99642086 0.00907993 C16.29586749 0.00965889 19.59525222 0.01468805 22.89468789 0.02165389 C26.33935856 0.0278881 29.78402997 0.02849128 33.22870541 0.0296793 C39.75584288 0.03279242 46.28296369 0.04100554 52.81009382 0.05102879 C60.23923575 0.06219053 67.66837845 0.06770053 75.09752667 0.07272422 C90.38369931 0.08318817 105.6698553 0.10078723 120.95601559 0.12304783 C121.2440707 0.88633396 121.53212582 1.64962009 121.82890987 2.43603611 C127.62816932 17.792154 133.48227372 33.12198337 139.50481319 48.39221287 C147.75174601 69.31858564 155.74961075 90.33308751 163.66600704 111.38626194 C167.94669752 122.76607831 172.26220128 134.1326558 176.58101559 145.49804783 C176.98146084 146.55219883 177.38190609 147.60634983 177.79448605 148.6924448 C183.3652506 163.35413042 188.97945674 177.99849131 194.62560177 192.63128757 C199.55951807 205.4243111 204.39525826 218.2521442 209.19246578 231.09698582 C214.37433504 244.96718837 219.64769479 258.80078854 224.95601559 272.62304783 C234.67646966 297.94375543 244.20157028 323.3344878 253.65523434 348.75586033 C255.29694323 353.17000402 256.93886211 357.58406951 258.58101559 361.99804783 C258.98889309 363.09445591 259.39677059 364.19086399 259.81700802 365.32049656 C264.68466028 378.40049009 269.57927447 391.46870274 274.58101559 404.49804783 C274.83390347 405.15697025 275.08679134 405.81589268 275.34734249 406.49478245 C275.86155457 407.83455145 276.3757707 409.17431889 276.88999081 410.51408482 C287.63620062 438.51596722 298.16871511 466.59403946 308.47908688 494.7592783 C313.85679158 509.44942418 319.30256997 524.10879941 324.88960934 538.72070408 C325.24522945 539.6528574 325.60084957 540.58501072 325.96724606 541.54541111 C326.60500112 543.20798345 327.24937735 544.86803829 327.90181637 546.5249033 C329.07537036 549.54037041 329.95601559 551.85587858 329.95601559 555.12304783 C293.32601559 555.12304783 256.69601559 555.12304783 218.95601559 555.12304783 C215.68405852 547.27035086 212.5000884 539.44043132 209.51460934 531.48242283 C209.10622326 530.39890537 208.69783718 529.31538792 208.27707577 528.1990366 C206.98060055 524.75777276 205.6870208 521.31542897 204.39351559 517.87304783 C203.55450964 515.6451129 202.71531795 513.41724792 201.87593746 511.18945408 C195.21832993 493.5072566 188.59015093 475.81407541 181.95601559 458.12304783 C77.51101559 457.62804783 77.51101559 457.62804783 -29.04398441 457.12304783 C-28.24398248 453.12303816 -27.2796991 449.69034645 -25.92679691 445.87304783 C-25.49052982 444.64014011 -25.05426273 443.4072324 -24.60477543 442.13696384 C-24.12651005 440.79887326 -23.64790376 439.46090449 -23.16898441 438.12304783 C-22.92477757 437.43765934 -22.68057072 436.75227085 -22.42896366 436.04611301 C-17.18034104 421.32165629 -11.62247007 406.72739792 -6.04398441 392.12304783 C-2.08398441 381.56304783 1.87601559 371.00304783 5.95601559 360.12304783 C51.82601559 360.12304783 97.69601559 360.12304783 144.95601559 360.12304783 C142.31601559 353.52304783 139.67601559 346.92304783 136.95601559 340.12304783 C134.52756645 333.85650257 132.10758653 327.5873538 129.70601559 321.31054783 C128.40858669 317.92223993 127.11039138 314.53422686 125.81148434 311.14648533 C125.48969707 310.30698841 125.16790981 309.46749149 124.83637142 308.60255527 C122.6888024 303.00836241 120.51273198 297.42596086 118.31929684 291.84961033 C117.75505809 290.41060768 117.19092762 288.97156257 116.62691402 287.53247166 C115.83090548 285.50152587 115.03282621 283.4715534 114.22713375 281.44442844 C113.49674644 279.60656243 112.77498342 277.76527599 112.05367184 275.92382908 C111.64640865 274.89427097 111.23914547 273.86471287 110.81954098 272.80395603 C109.95601559 270.12304783 109.95601559 270.12304783 109.95601559 266.12304783 C111.38960934 264.51757908 111.38960934 264.51757908 113.39351559 262.93554783 C116.59098766 260.30200381 119.55661546 257.58295718 122.45601559 254.62304783 C125.91393753 251.11726537 129.48163157 247.82344903 133.22945309 244.63086033 C134.98642729 243.14508685 134.98642729 243.14508685 136.55757809 241.42773533 C137.95601559 240.12304783 137.95601559 240.12304783 139.95601559 240.12304783 C137.33318039 233.96508694 133.99831653 229.75158511 129.44039059 224.88086033 C126.82053408 221.97265484 124.43305887 218.93433346 122.08101559 215.81054783 C118.60809027 211.21060618 115.01632537 206.75212852 111.26851559 202.37304783 C107.62628518 198.11727653 104.09802056 193.8035686 100.69039059 189.35742283 C97.95080109 185.82804176 95.10592046 182.38644564 92.26851559 178.93554783 C90.03042203 176.21354215 87.80559375 173.481101 85.58101559 170.74804783 C82.73040599 167.25791016 79.84149033 163.80633507 76.91377926 160.38110447 C71.01383538 153.47564084 65.42600697 146.37286287 59.95601559 139.12304783 C56.21877228 140.62797802 54.37333214 142.73967215 51.89351559 145.87304783 C51.1058984 146.8604697 50.31828121 147.84789158 49.50679684 148.86523533 C48.65527842 149.95018667 47.80505188 151.03615298 46.95601559 152.12304783 C46.52337399 152.67637791 46.09073238 153.22970798 45.64498043 153.79980564 C45.20492672 154.36280369 44.76487301 154.92580173 44.31148434 155.50586033 C43.40134072 156.66993271 42.49118429 157.83399507 41.58101559 158.99804783 C41.12082027 159.58803562 40.66062496 160.17802341 40.18648434 160.78588963 C37.013396 164.83433167 33.74055009 168.78018189 30.39351559 172.68554783 C26.4135254 177.33225108 22.63155627 182.0880291 18.9362402 186.96704197 C15.39304709 191.61769922 11.68993963 196.12471809 7.95601559 200.62304783 C2.99701153 206.6014802 -1.82733354 212.64799917 -6.50882816 218.84570408 C-8.39832471 221.32399559 -10.36236058 223.72755147 -12.36039066 226.11914158 C-12.92032719 226.79573826 -13.48026371 227.47233494 -14.05716801 228.16943455 C-15.15252255 229.48839603 -16.25798611 230.79904357 -17.37455082 232.10009861 C-20.19932051 235.19919008 -20.19932051 235.19919008 -20.8828516 239.11425877 C-19.87866545 241.51892805 -18.71819561 242.72181698 -16.79789066 244.47851658 C-16.12967289 245.09710545 -15.46145512 245.71569431 -14.77298832 246.3530283 C-14.05804203 246.99900974 -13.34309574 247.64499119 -12.60648441 248.31054783 C-11.52246342 249.30659031 -11.52246342 249.30659031 -10.41654301 250.32275486 C-8.29946758 252.26415506 -6.17252409 254.19423569 -4.04398441 256.12304783 C-2.97177445 257.10547135 -1.90008522 258.08846378 -0.82914066 259.07226658 C3.26012586 263.02309178 3.26012586 263.02309178 7.95601559 266.12304783 C7.25066956 270.42606986 5.8575778 274.36860307 4.31539059 278.42773533 C3.90389011 279.52419628 3.90389011 279.52419628 3.4840765 280.64280796 C2.5619664 283.09604639 1.63406531 285.54705074 0.70601559 287.99804783 C0.04606068 289.74951661 -0.61368304 291.50106498 -1.27323246 293.2526865 C-7.93914192 310.93135207 -14.69199995 328.57734636 -21.45707035 346.21826267 C-26.65085143 359.77399033 -31.74603449 373.36284434 -36.77323246 386.98120213 C-39.65787638 394.7933219 -42.59202832 402.58616562 -45.54398441 410.37304783 C-45.8264603 411.11953587 -46.1089362 411.8660239 -46.39997196 412.63513279 C-50.04460375 422.26656373 -53.71683506 431.88707462 -57.41507816 441.49804783 C-58.93758974 445.45623661 -60.45976014 449.4145563 -61.98148441 453.37304783 C-62.3626038 454.36434696 -62.74372318 455.3556461 -63.13639164 456.3769846 C-69.0538737 471.78267587 -74.82156807 487.23700115 -80.39530277 502.77050877 C-86.62827748 520.02417293 -93.38631063 537.00331526 -100.04398441 554.12304783 C-136.67398441 554.12304783 -173.30398441 554.12304783 -211.04398441 554.12304783 C-209.18364722 547.92192385 -207.31961476 541.90098016 -205.03226566 535.87304783 C-204.74713612 535.11369434 -204.46200657 534.35434086 -204.16823673 533.57197666 C-203.23432068 531.08773017 -202.29551918 528.60536351 -201.35648441 526.12304783 C-200.69189651 524.35904435 -200.02751262 522.59496399 -199.36332035 520.8308115 C-191.72966322 500.5749879 -184.00474258 480.35363152 -176.28342533 460.13110447 C-169.25082597 441.71126078 -162.35546686 423.2420745 -155.4814539 404.7625742 C-149.73572281 389.31794566 -143.9498594 373.88960528 -138.10453129 358.48242283 C-133.95341571 347.53925678 -129.83575888 336.58386232 -125.73148441 325.62304783 C-113.5257159 293.0326848 -101.20038034 260.48722501 -88.84037113 227.95507908 C-81.39454897 208.35668679 -73.99135042 188.74232014 -66.59232426 169.12622166 C-61.37198625 155.2870204 -56.1422464 141.4514371 -50.90146732 127.61996555 C-47.61802503 118.95242054 -44.34911768 110.27958783 -41.09867191 101.59961033 C-40.76489033 100.70843006 -40.43110874 99.81724979 -40.08721256 98.89906406 C-38.48265071 94.61398298 -36.87961391 90.3283406 -35.27909184 86.041749 C-32.13431893 77.62914861 -28.93780974 69.23976435 -25.67011356 60.8741312 C-22.37854506 52.43889067 -19.17937657 43.96914473 -15.98148441 35.49804783 C-15.38976049 33.93291608 -14.79796367 32.36781189 -14.20609379 30.80273533 C-13.61947431 29.25066369 -13.03288549 27.69858046 -12.44632816 26.14648533 C-12.16252293 25.39598911 -11.87871769 24.6454929 -11.58631229 23.87225437 C-10.14952641 20.06839478 -8.72208698 16.26138263 -7.31009769 12.44824314 C-7.0343642 11.70571293 -6.75863071 10.96318272 -6.47454166 10.19815159 C-5.95138866 8.78786802 -5.43048072 7.37674901 -4.91213322 5.96469212 C-2.75868263 0.16607265 -2.75868263 0.16607265 0 0 Z " fill="#1E1F65" transform="translate(910.043984413147,673.8769521713257)"/>
<path d="M0 0 C34.98 0 69.96 0 106 0 C106 182.82 106 365.64 106 554 C71.02 554 36.04 554 0 554 C0 371.18 0 188.36 0 0 Z " fill="#1C1D65" transform="translate(1256,674)"/>
<path d="M0 0 C0.66 0 1.32 0 2 0 C3.5234375 1.6953125 3.5234375 1.6953125 5.375 4.125 C8.75077978 8.45307932 12.22740585 12.65858089 15.8125 16.8125 C16.8464038 18.01297809 17.88025763 19.21349921 18.9140625 20.4140625 C19.42743164 21.00993164 19.94080078 21.60580078 20.46972656 22.21972656 C27.04049548 29.86395869 33.50149214 37.5892719 39.8515625 45.41796875 C42.65208426 48.78368672 45.58901529 52.01311005 48.56640625 55.22265625 C50 57 50 57 50 59 C43.4 59 36.8 59 30 59 C30 90.02 30 121.04 30 153 C10.86 153 -8.28 153 -28 153 C-28 121.65 -28 90.3 -28 58 C-34.27 58 -40.54 58 -47 58 C-42.87813135 52.42703343 -38.6167492 47.01828865 -34.1875 41.6875 C-32.94778665 40.18890963 -31.70820323 38.69021177 -30.46875 37.19140625 C-29.87320313 36.47227051 -29.27765625 35.75313477 -28.6640625 35.01220703 C-25.09014093 30.69057241 -21.54789795 26.34300126 -18 22 C-15.7608796 19.26286158 -13.52139957 16.5260631 -11.27734375 13.79296875 C-9.67305774 11.82544817 -8.08251792 9.85109455 -6.50390625 7.86328125 C-5.69824219 6.85652344 -4.89257812 5.84976563 -4.0625 4.8125 C-3.33160156 3.89082031 -2.60070312 2.96914063 -1.84765625 2.01953125 C-1.23792969 1.35308594 -0.62820313 0.68664062 0 0 Z " fill="#23A54D" transform="translate(968,852)"/>
<path d="M0 0 C9.82589915 6.55059944 16.54335642 15.67542854 19.08203125 27.3046875 C20.23983048 40.27496999 18.57675714 50.62109987 11.08203125 61.3046875 C10.62828125 61.95566406 10.17453125 62.60664062 9.70703125 63.27734375 C3.87484463 70.81610771 -5.86577424 75.99931221 -15.10546875 77.9921875 C-29.07675267 79.13737471 -41.83790095 77.69015669 -52.91796875 68.3046875 C-60.75099694 60.94734928 -66.3948656 50.93638877 -67.13671875 40.11328125 C-67.49493215 26.27728878 -63.7435768 15.48119302 -54.41796875 5.1171875 C-39.40164282 -8.71586322 -17.58314042 -10.21563981 0 0 Z " fill="#1D9A4A" transform="translate(1514.91796875,1327.6953125)"/>
<path d="M0 0 C7.05375 -0.061875 14.1075 -0.12375 21.375 -0.1875 C23.58106934 -0.21481201 25.78713867 -0.24212402 28.06005859 -0.27026367 C29.83951269 -0.27903841 31.61897288 -0.28668 33.3984375 -0.29296875 C34.29731689 -0.30831665 35.19619629 -0.32366455 36.12231445 -0.33947754 C46.056111 -0.34351457 54.75978237 1.96813396 62 9 C65.47758598 13.5643316 65.6170879 18.37424053 65.4921875 23.953125 C64.47656366 30.24032019 60.46641725 34.69453472 56 39 C56.53109375 39.23074219 57.0621875 39.46148438 57.609375 39.69921875 C63.65900864 42.49220654 67.38330047 45.73311456 70 52 C71.10119758 59.81426747 70.48144628 66.31734652 65.984375 72.90234375 C61.30891526 77.84470966 54.40923465 80.77714028 47.62078857 81.12025452 C46.74142639 81.11803391 45.86206421 81.11581329 44.95605469 81.11352539 C43.43407471 81.11334412 43.43407471 81.11334412 41.88134766 81.11315918 C40.29265869 81.10548523 40.29265869 81.10548523 38.671875 81.09765625 C37.69299316 81.09664917 36.71411133 81.09564209 35.70556641 81.09460449 C32.053699 81.08937785 28.40184831 81.07541658 24.75 81.0625 C12.49875 81.0315625 12.49875 81.0315625 0 81 C0 54.27 0 27.54 0 0 Z " fill="#1E9A4B" transform="translate(1364,1323)"/>
<path d="M0 0 C7.095 -0.04125 14.19 -0.0825 21.5 -0.125 C23.72427734 -0.14320801 25.94855469 -0.16141602 28.24023438 -0.18017578 C30.02473714 -0.18602298 31.80924259 -0.191118 33.59375 -0.1953125 C34.50286133 -0.20554443 35.41197266 -0.21577637 36.34863281 -0.22631836 C46.15027881 -0.22897319 54.59733899 1.66905572 61.765625 8.7421875 C68.27106006 16.10027667 68.7288944 22.53790172 68.19091797 32.09423828 C67.58641351 38.12846049 64.99857281 42.37424721 60.625 46.4375 C57.61943767 48.78092981 54.73045494 50.09013294 51 51 C54.10277638 56.71764689 57.70553128 61.89271172 61.5625 67.125 C68.49223553 76.5556345 68.49223553 76.5556345 71 81 C64.59947416 82.44011831 58.23258064 83.57230529 52 81 C44.63808585 74.32506113 39.41498728 64.82997455 35 56 C28.73 55.67 22.46 55.34 16 55 C16 63.58 16 72.16 16 81 C10.72 81 5.44 81 0 81 C0 54.27 0 27.54 0 0 Z " fill="#232261" transform="translate(898,1323)"/>
<path d="M0 0 C7.05375 -0.061875 14.1075 -0.12375 21.375 -0.1875 C23.58106934 -0.21481201 25.78713867 -0.24212402 28.06005859 -0.27026367 C29.83951269 -0.27903841 31.61897288 -0.28668 33.3984375 -0.29296875 C34.29731689 -0.30831665 35.19619629 -0.32366455 36.12231445 -0.33947754 C44.88378168 -0.34303815 53.07273261 1.36152654 60 7 C65.43110096 12.55740563 68.06978597 18.07824825 68.4375 25.8125 C68.19565589 32.93590843 66.07191143 39.51370628 61.5 45 C60.675 45.66 59.85 46.32 59 47 C58.34 47.5775 57.68 48.155 57 48.75 C54.67764646 50.20147096 52.67647075 50.52457428 50 51 C52.22221292 54.34572651 54.44597404 57.69041811 56.67114258 61.03417969 C57.42709751 62.17061845 58.18263702 63.30733367 58.93774414 64.44433594 C60.02639913 66.08341834 61.1166981 67.72140845 62.20703125 69.359375 C62.8616333 70.34389648 63.51623535 71.32841797 64.19067383 72.34277344 C65.32314359 74.00594992 66.49972616 75.64082945 67.73706055 77.22753906 C69 79 69 79 69 81 C62.98465848 82.15445948 56.88156729 83.17264586 51 81 C44.25027599 75.21794401 40.13173993 66.2822617 36.2265625 58.4375 C33.73671777 55.71177524 33.17658229 55.57755083 29.671875 55.1953125 C28.03211778 55.13703771 26.39078653 55.12060974 24.75 55.125 C21.8625 55.08375 18.975 55.0425 16 55 C16 63.58 16 72.16 16 81 C10.72 81 5.44 81 0 81 C0 54.27 0 27.54 0 0 Z " fill="#211F60" transform="translate(649,1323)"/>
<path d="M0 0 C1.48831242 0.00667405 2.97660807 0.01863442 4.46484375 0.03515625 C5.22345703 0.03966797 5.98207031 0.04417969 6.76367188 0.04882812 C8.64326246 0.06064945 10.52281274 0.07858547 12.40234375 0.09765625 C12.77294922 0.97462158 13.14355469 1.85158691 13.52539062 2.75512695 C21.76275658 22.22137677 30.24382989 41.55339625 39.09609985 60.7481842 C40.00302238 62.71481689 40.90865658 64.68203785 41.81396484 66.64941406 C42.78628713 68.76024714 43.76228841 70.86939646 44.74462891 72.97558594 C45.11249512 73.77641602 45.48036133 74.57724609 45.859375 75.40234375 C46.31727417 76.38823486 46.31727417 76.38823486 46.78442383 77.39404297 C47.40234375 79.09765625 47.40234375 79.09765625 47.40234375 82.09765625 C42.12234375 82.09765625 36.84234375 82.09765625 31.40234375 82.09765625 C28.31222514 76.08445246 25.79628345 70.48149545 23.40234375 64.09765625 C10.53234375 64.09765625 -2.33765625 64.09765625 -15.59765625 64.09765625 C-17.90765625 70.03765625 -20.21765625 75.97765625 -22.59765625 82.09765625 C-27.87765625 82.09765625 -33.15765625 82.09765625 -38.59765625 82.09765625 C-37.7591191 77.90497051 -36.76677812 74.85763531 -35.078125 70.99609375 C-34.55629639 69.79702393 -34.03446777 68.5979541 -33.49682617 67.36254883 C-32.92639896 66.06586103 -32.35583902 64.7692316 -31.78515625 63.47265625 C-31.19796858 62.12865438 -30.61114081 60.78449523 -30.0246582 59.44018555 C-25.66426242 49.46125782 -21.23593808 39.5124944 -16.79248047 29.5703125 C-13.39290613 21.94612427 -10.09807938 14.28433666 -6.91870117 6.56567383 C-4.24932363 0.11534538 -4.24932363 0.11534538 0 0 Z " fill="#21205F" transform="translate(586.59765625,1321.90234375)"/>
<path d="M0 0 C5.28 0 10.56 0 16 0 C20.20321578 8.16333512 23.88927894 16.50237891 27.5 24.9375 C28.61303794 27.53061417 29.72781801 30.12297378 30.84375 32.71484375 C31.1130835 33.34087494 31.38241699 33.96690613 31.65991211 34.61190796 C33.69191683 39.32102162 35.79720237 43.9932737 37.93408203 48.65551758 C39.34041873 51.74874968 40.6640843 54.87579503 42 58 C43.93605677 62.33060617 45.89830228 66.64942527 47.859375 70.96875 C48.24867187 71.82984375 48.63796875 72.6909375 49.0390625 73.578125 C49.39178223 74.35575195 49.74450195 75.13337891 50.10791016 75.93457031 C51 78 51 78 52 81 C46.39 81 40.78 81 35 81 C32.69 75.39 30.38 69.78 28 64 C8.2 63.505 8.2 63.505 -12 63 C-12.99 65.97 -13.98 68.94 -15 72 C-16.24983582 75.04725857 -17.6221012 78.00663365 -19 81 C-24.28 81 -29.56 81 -35 81 C-30.72856196 70.37107279 -26.20282712 59.88186358 -21.5 49.4375 C-21.07161835 48.48591507 -21.07161835 48.48591507 -20.63458252 47.5151062 C-19.24335779 44.42538241 -17.85147173 41.33595705 -16.45947266 38.24658203 C-10.76732063 25.58444793 -5.35902432 12.80598019 0 0 Z " fill="#229C4D" transform="translate(1229,1323)"/>
<path d="M0 0 C20.46 0 40.92 0 62 0 C62 4.62 62 9.24 62 14 C46.49 14 30.98 14 15 14 C15 20.27 15 26.54 15 33 C28.53 33 42.06 33 56 33 C56 37.62 56 42.24 56 47 C42.47 47 28.94 47 15 47 C15 53.6 15 60.2 15 67 C30.84 67 46.68 67 63 67 C63 71.62 63 76.24 63 81 C42.21 81 21.42 81 0 81 C0 54.27 0 27.54 0 0 Z " fill="#201E62" transform="translate(736,1323)"/>
<path d="M0 0 C20.13 0 40.26 0 61 0 C61 4.62 61 9.24 61 14 C45.82 14 30.64 14 15 14 C15 20.27 15 26.54 15 33 C28.53 33 42.06 33 56 33 C56 37.62 56 42.24 56 47 C42.47 47 28.94 47 15 47 C15 53.6 15 60.2 15 67 C30.51 67 46.02 67 62 67 C62 71.62 62 76.24 62 81 C41.54 81 21.08 81 0 81 C0 54.27 0 27.54 0 0 Z " fill="#222161" transform="translate(818,1323)"/>
<path d="M0 0 C5.28 0 10.56 0 16 0 C16 11.22 16 22.44 16 34 C28.21 34 40.42 34 53 34 C53 22.78 53 11.56 53 0 C57.95 0 62.9 0 68 0 C68 26.73 68 53.46 68 81 C63.05 81 58.1 81 53 81 C53 70.11 53 59.22 53 48 C40.79 48 28.58 48 16 48 C16 58.89 16 69.78 16 81 C10.72 81 5.44 81 0 81 C0 54.27 0 27.54 0 0 Z " fill="#219B4A" transform="translate(1110,1323)"/>
<path d="M0 0 C0.80179688 0.25652344 1.60359375 0.51304688 2.4296875 0.77734375 C8.79456919 3.03116964 13.22988335 6.25653205 18 11 C17.60167969 11.45890625 17.20335937 11.9178125 16.79296875 12.390625 C14.08857938 15.52271585 11.42008229 18.63877459 9 22 C6.50629873 20.84906095 4.39124515 19.57651836 2.125 18 C-5.15668141 13.3397239 -12.5730657 13.21990665 -21 14 C-28.04927283 16.02817337 -32.75733621 20.85435433 -36.8125 26.8125 C-40.6218227 34.04416658 -40.336517 43.2792748 -38.1484375 51.0078125 C-35.14885123 57.68036154 -30.2342814 62.8934982 -23.66796875 66.16015625 C-16.37962351 68.4544377 -8.21707823 68.06278971 -1.375 64.6875 C1.59296428 63.00092644 4.29850036 61.08418863 7 59 C10.21524305 60.40844718 12.32183868 62.10344786 14.75 64.625 C15.36359375 65.25664063 15.9771875 65.88828125 16.609375 66.5390625 C17.06828125 67.02117187 17.5271875 67.50328125 18 68 C15.59009085 74.02477287 9.41062208 77.34255734 3.7734375 80.08203125 C-7.19638663 84.38101638 -19.18260918 84.39531501 -30.1484375 80.2578125 C-40.39632709 75.73751051 -48.43234598 69.65871208 -53.15625 59.25390625 C-58.1549032 45.90102248 -58.41875627 34.26080726 -53 21 C-47.43508002 10.13358821 -38.24980341 3.13220856 -26.78515625 -0.75 C-18.03476583 -3.02858268 -8.5590765 -2.93693802 0 0 Z " fill="#211F5E" transform="translate(522,1323)"/>
<path d="M0 0 C0.86625 0.61875 1.7325 1.2375 2.625 1.875 C3.615 2.535 4.605 3.195 5.625 3.875 C4.21655282 7.09024305 2.52155214 9.19683868 0 11.625 C-0.94746094 12.54539062 -0.94746094 12.54539062 -1.9140625 13.484375 C-2.39617187 13.94328125 -2.87828125 14.4021875 -3.375 14.875 C-5.80775577 14.01176408 -8.00760787 13.13836649 -10.11328125 11.62890625 C-17.42873884 6.61462173 -25.82476662 6.48315081 -34.375 7.875 C-41.88599941 10.30003373 -45.67223946 14.88966867 -49.31640625 21.703125 C-49.66574219 22.41984375 -50.01507812 23.1365625 -50.375 23.875 C-50.705 24.535 -51.035 25.195 -51.375 25.875 C-52.35340244 36.25349676 -52.00325747 45.25692082 -45.375 53.875 C-37.38043234 60.85183376 -29.79538211 61.77372373 -19.51464844 61.17529297 C-15.29404089 60.58294389 -12.04272144 58.53976556 -8.57421875 56.1875 C-6.375 54.875 -6.375 54.875 -2.375 54.875 C-0.234375 56.40625 -0.234375 56.40625 1.875 58.375 C2.58140625 59.0246875 3.2878125 59.674375 4.015625 60.34375 C4.81226563 61.10171875 4.81226563 61.10171875 5.625 61.875 C3.73855516 67.53433453 -2.76165716 70.50063603 -7.86328125 73.18359375 C-17.80227786 77.74383925 -29.64937221 78.8446281 -40.125 75.3125 C-52.73251997 69.91730572 -61.17628599 62.58586524 -66.875 49.9375 C-68.60053065 44.59913956 -68.78923901 39.31578634 -68.875 33.75 C-68.89369141 32.91476807 -68.91238281 32.07953613 -68.93164062 31.21899414 C-68.81637465 19.97502012 -62.61467829 10.41148793 -55.3125 2.1875 C-39.99642584 -12.54477761 -16.79482905 -10.574522 0 0 Z " fill="#1F9C4B" transform="translate(1087.375,1329.125)"/>
<path d="M0 0 C7.79992836 3.22484433 12.25555544 9.02316419 16.19921875 16.2734375 C18.79089342 24.04846152 18.09827412 32.41763234 14.63671875 39.7734375 C10.11535027 47.71752417 4.03487011 52.69938522 -4.80078125 55.2734375 C-12.99869011 56.53862658 -19.23224354 54.33265369 -26 49.80078125 C-31.51075639 45.4920013 -33.75969832 40.86947951 -35.80078125 34.2734375 C-36.29578125 32.7884375 -36.29578125 32.7884375 -36.80078125 31.2734375 C-37.66584544 21.90745404 -35.5926803 14.72016485 -29.80078125 7.2734375 C-21.07026414 -0.88769806 -11.6837554 -3.03093236 0 0 Z " fill="#FAFEFB" transform="translate(1500.80078125,1336.7265625)"/>
<path d="M0 0 C34.98 0 69.96 0 106 0 C106 79.53 106 159.06 106 241 C105.67 241 105.34 241 105 241 C103.89659712 114.21607124 103.89659712 114.21607124 103.87661743 60.76113129 C103.87501158 57.95771426 103.87146869 55.15430561 103.86743164 52.35089111 C103.86159901 47.98155814 103.86132738 43.61226009 103.86568069 39.24292564 C103.86665463 37.68967393 103.86614468 36.13642025 103.86384201 34.58316994 C103.85044215 23.69108301 104.3044434 12.86957161 105 2 C104.00525162 2.07105453 103.01050323 2.14210907 101.98561096 2.21531677 C90.63431757 2.98034851 79.33856178 3.13190442 67.96484375 3.09765625 C66.10584044 3.09578515 64.24683663 3.09436453 62.38783264 3.09336853 C57.55637182 3.08959772 52.72494232 3.07981567 47.89349365 3.06866455 C42.9387657 3.05833176 37.98403256 3.0538458 33.02929688 3.04882812 C23.35285102 3.03818703 13.67642814 3.02117822 4 3 C1.89455484 6.45327199 1.75032051 9.15708719 1.75111103 13.16561985 C1.74651223 14.44000339 1.74191344 15.71438693 1.73717529 17.02738816 C1.74219162 18.44555129 1.74739391 19.86371377 1.75276184 21.28187561 C1.7511737 22.78765854 1.74871005 24.29344075 1.74544543 25.79922098 C1.73901475 29.94898822 1.74511541 34.09865829 1.75320971 38.24841917 C1.75978238 42.72920443 1.75483661 47.20997874 1.75132751 51.69076538 C1.74626428 60.51605248 1.75196867 69.34130226 1.76117782 78.16658474 C1.77165062 88.59258039 1.7714886 99.01856829 1.77100524 109.44456821 C1.77050269 128.24324518 1.77968297 147.04190532 1.79418945 165.84057617 C1.80797674 183.71818353 1.81532761 201.59577591 1.81469727 219.47338867 C1.8120407 315.75677833 1.95682782 412.03577831 2.65376282 508.31690979 C2.66160905 509.40120892 2.66160905 509.40120892 2.6696138 510.50741308 C2.77261007 524.67166735 2.88745735 538.83581494 3 553 C36.66 553 70.32 553 105 553 C104.83757812 543.05101562 104.67515625 533.10203125 104.5078125 522.8515625 C104.40845321 515.92872073 104.31141327 509.00607048 104.23144531 502.08300781 C104.22086798 501.16742426 104.21029065 500.25184072 104.1993928 499.30851221 C103.72281351 456.87692903 103.85154447 414.43870825 103.87143159 372.00513959 C103.87581518 361.53263209 103.87263706 351.06013644 103.8678025 340.58762968 C103.86326786 330.34741901 103.86261967 320.10721348 103.86524117 309.86700213 C103.86678971 303.81088199 103.86703513 297.75476996 103.86370468 291.69865036 C103.86081758 286.06545635 103.86281698 280.43228483 103.86859894 274.79909325 C103.86991783 272.74196218 103.86954724 270.6848292 103.86733627 268.6276989 C103.86459299 265.81690853 103.86804346 263.00618988 103.87301636 260.19540405 C103.86967027 258.98659799 103.86967027 258.98659799 103.86625659 257.7533716 C103.88445074 252.43415239 104.33824988 247.27891049 105 242 C105.33 242 105.66 242 106 242 C106 344.96 106 447.92 106 554 C71.02 554 36.04 554 0 554 C0 371.18 0 188.36 0 0 Z " fill="#202153" transform="translate(1256,674)"/>
<path d="M0 0 C21.78 0 43.56 0 66 0 C66 4.62 66 9.24 66 14 C57.42 14 48.84 14 40 14 C40 36.11 40 58.22 40 81 C34.72 81 29.44 81 24 81 C24 58.89 24 36.78 24 14 C16.08 14 8.16 14 0 14 C0 9.38 0 4.76 0 0 Z " fill="#1E9849" transform="translate(1281,1323)"/>
<path d="M0 0 C21.78 0 43.56 0 66 0 C66 4.62 66 9.24 66 14 C57.75 14 49.5 14 41 14 C41 36.11 41 58.22 41 81 C36.05 81 31.1 81 26 81 C26 58.89 26 36.78 26 14 C17.42 14 8.84 14 0 14 C0 9.38 0 4.76 0 0 Z " fill="#1B9A49" transform="translate(1544,1323)"/>
<path d="M0 0 C6.249375 -0.0928125 6.249375 -0.0928125 12.625 -0.1875 C13.92775879 -0.21481201 15.23051758 -0.24212402 16.57275391 -0.27026367 C23.91045904 -0.3230897 28.67381353 0.11146964 34.375 5.0625 C36.76578066 9.3842958 36.73515542 13.17118964 36 18 C34.58996814 21.37181531 33.52390293 23.23597576 30.20507812 24.89990234 C23.72012949 27.1990296 17.76586865 27.35418949 10.9375 27.1875 C7.328125 27.125625 3.71875 27.06375 0 27 C0 18.09 0 9.18 0 0 Z " fill="#FAFAFC" transform="translate(914,1337)"/>
<path d="M0 0 C6.001875 -0.0928125 6.001875 -0.0928125 12.125 -0.1875 C13.37555176 -0.21481201 14.62610352 -0.24212402 15.91455078 -0.27026367 C23.11958967 -0.32424052 27.77802946 0.20197295 33.375 5.0625 C35.76152891 9.37660995 35.74948951 13.17854172 35 18 C32.9614556 22.48479767 30.81145056 24.55668362 26.25366211 26.40893555 C21.45955003 27.66627986 16.48014906 27.30043835 11.5625 27.1875 C5.8390625 27.0946875 5.8390625 27.0946875 0 27 C0 18.09 0 9.18 0 0 Z " fill="#FBFBFD" transform="translate(665,1337)"/>
<path d="M0 0 C4.00229288 -0.06922608 8.00304204 -0.12884797 12.00561523 -0.16479492 C13.36441117 -0.17979409 14.72315941 -0.20020038 16.08178711 -0.22631836 C32.27951473 -0.52969115 32.27951473 -0.52969115 38.4375 5.3125 C40.35974999 8.61876998 40.61558356 10.22955067 40 14 C38.19205638 17.61588724 37.05456331 19.54733637 33.29833984 21.15966797 C29.68108741 22.08125071 26.58182533 22.22719509 22.8515625 22.1953125 C22.19417084 22.1924826 21.53677917 22.18965271 20.85946655 22.18673706 C18.78111767 22.17563447 16.70321634 22.15054986 14.625 22.125 C13.20703752 22.11495731 11.78906821 22.10583373 10.37109375 22.09765625 C6.91375571 22.0774379 3.45737265 22.0382735 0 22 C0 14.74 0 7.48 0 0 Z " fill="#FCFEFC" transform="translate(1379,1369)"/>
<path d="M0 0 C4.37566252 -0.10804105 8.74865081 -0.18735287 13.125 -0.25 C14.3625 -0.28351563 15.6 -0.31703125 16.875 -0.3515625 C28.34281801 -0.47487237 28.34281801 -0.47487237 33 4 C34.56935594 7.13871188 34.35201103 9.53855822 34 13 C31.45862841 16.15954305 29.85377341 17.71540886 26 19 C24.0079697 19.08291953 22.01326287 19.10738177 20.01953125 19.09765625 C18.85615234 19.09443359 17.69277344 19.09121094 16.49414062 19.08789062 C15.27919922 19.07951172 14.06425781 19.07113281 12.8125 19.0625 C11.58595703 19.05798828 10.35941406 19.05347656 9.09570312 19.04882812 C6.06378135 19.03703076 3.0318846 19.01909514 0 19 C0 12.73 0 6.46 0 0 Z " fill="#FBFEFC" transform="translate(1380,1337)"/>
<path d="M0 0 C20.46 0 40.92 0 62 0 C62 4.62 62 9.24 62 14 C46.82 14 31.64 14 16 14 C16 13.34 16 12.68 16 12 C30.19 12 44.38 12 59 12 C59.33 8.7 59.66 5.4 60 2 C40.86 2 21.72 2 2 2 C2 27.41 2 52.82 2 79 C10.270625 79.020625 18.54125 79.04125 27.0625 79.0625 C30.96074585 79.07615601 30.96074585 79.07615601 34.93774414 79.09008789 C37.01188099 79.09301021 39.08601841 79.09555802 41.16015625 79.09765625 C42.75821106 79.1053302 42.75821106 79.1053302 44.3885498 79.11315918 C49.70483341 79.11378017 54.76337293 78.93708063 60 78 C60.33 75.03 60.66 72.06 61 69 C46.15 69 31.3 69 16 69 C16 68.67 16 68.34 16 68 C31.18 68 46.36 68 62 68 C62 72.29 62 76.58 62 81 C41.54 81 21.08 81 0 81 C0 54.27 0 27.54 0 0 Z " fill="#242355" transform="translate(736,1323)"/>
<path d="M0 0 C0.74572266 -0.00386719 1.49144531 -0.00773437 2.25976562 -0.01171875 C7.81086499 -0.00163501 7.81086499 -0.00163501 8.9375 1.125 C9.03789611 3.70600756 9.07367269 6.26027897 9.06689453 8.84179688 C9.06952301 10.05392601 9.06952301 10.05392601 9.07220459 11.2905426 C9.07662376 13.9749666 9.07368489 16.65932528 9.0703125 19.34375 C9.07098552 21.20080579 9.07195553 23.0578615 9.07321167 24.91491699 C9.07468873 28.81226437 9.07253382 32.70958887 9.06787109 36.60693359 C9.0621738 41.614345 9.06545276 46.62170281 9.07144356 51.62911224 C9.07504895 55.46539721 9.07391069 59.30166937 9.07131577 63.13795471 C9.07064644 64.98482774 9.07147513 66.83170192 9.07379532 68.67857361 C9.07632149 71.25514832 9.07248177 73.83163501 9.06689453 76.40820312 C9.06891876 77.1791481 9.07094299 77.95009308 9.07302856 78.74440002 C9.05176255 84.01073745 9.05176255 84.01073745 7.9375 85.125 C5.24095146 85.19819621 2.57058542 85.21742537 -0.125 85.1875 C-0.88361328 85.18298828 -1.64222656 85.17847656 -2.42382812 85.17382812 C-4.30341871 85.1620068 -6.18296899 85.14407078 -8.0625 85.125 C-8.0625 84.465 -8.0625 83.805 -8.0625 83.125 C-3.1125 83.125 1.8375 83.125 6.9375 83.125 C6.9375 56.395 6.9375 29.665 6.9375 2.125 C1.9875 2.125 -2.9625 2.125 -8.0625 2.125 C-8.0625 13.345 -8.0625 24.565 -8.0625 36.125 C-20.2725 36.125 -32.4825 36.125 -45.0625 36.125 C-45.0625 24.905 -45.0625 13.685 -45.0625 2.125 C-50.3425 2.125 -55.6225 2.125 -61.0625 2.125 C-61.0625 28.855 -61.0625 55.585 -61.0625 83.125 C-61.3925 83.125 -61.7225 83.125 -62.0625 83.125 C-62.0625 56.065 -62.0625 29.005 -62.0625 1.125 C-56.1225 1.125 -50.1825 1.125 -44.0625 1.125 C-44.0625 12.015 -44.0625 22.905 -44.0625 34.125 C-32.8425 34.125 -21.6225 34.125 -10.0625 34.125 C-10.0625 23.235 -10.0625 12.345 -10.0625 1.125 C-6.88856311 -0.46196844 -3.48075795 -0.0181447 0 0 Z " fill="#C9F2D8" transform="translate(1171.0625,1320.875)"/>
<path d="M0 0 C8.84882724 -0.02255318 17.69763552 -0.04091634 26.54648495 -0.05181217 C30.65494285 -0.05704046 34.76338014 -0.06413713 38.87182617 -0.07543945 C42.83346828 -0.08627025 46.79509052 -0.09227724 50.75674629 -0.09487724 C52.27148311 -0.09673114 53.78621879 -0.1003511 55.30094719 -0.10573006 C57.41541813 -0.11294307 59.52980594 -0.11399083 61.64428711 -0.11352539 C62.85007919 -0.115746 64.05587128 -0.11796661 65.29820251 -0.12025452 C68 0 68 0 69 1 C69.09981214 3.6773138 69.13879875 6.32304175 69.125 9 C69.12886719 9.75023437 69.13273437 10.50046875 69.13671875 11.2734375 C69.12661053 16.87338947 69.12661053 16.87338947 68 18 C59.75 18 51.5 18 43 18 C43 39.45 43 60.9 43 83 C42.34 83 41.68 83 41 83 C41 60.89 41 38.78 41 16 C49.58 16 58.16 16 67 16 C67 11.38 67 6.76 67 2 C45.22 2 23.44 2 1 2 C1 6.62 1 11.24 1 16 C8.92 16 16.84 16 25 16 C25 38.11 25 60.22 25 83 C24.67 83 24.34 83 24 83 C24 61.22 24 39.44 24 17 C16.08 17 8.16 17 0 17 C0 11.39 0 5.78 0 0 Z " fill="#D1FBE2" transform="translate(1280,1321)"/>
<path d="M0 0 C2.91806752 2.50815743 4.16980831 5.19050963 5.69921875 8.69140625 C6.42915039 10.35526367 6.42915039 10.35526367 7.17382812 12.05273438 C7.67333984 13.21095703 8.17285156 14.36917969 8.6875 15.5625 C9.19861328 16.72458984 9.70972656 17.88667969 10.23632812 19.08398438 C14 27.72183745 14 27.72183745 14 30 C5.09 30 -3.82 30 -13 30 C-11.66369049 25.99107147 -10.32400049 22.26669798 -8.65234375 18.41796875 C-8.21212891 17.40412109 -7.77191406 16.39027344 -7.31835938 15.34570312 C-6.63483398 13.78239258 -6.63483398 13.78239258 -5.9375 12.1875 C-5.47794922 11.12595703 -5.01839844 10.06441406 -4.54492188 8.97070312 C-1.12773703 1.12773703 -1.12773703 1.12773703 0 0 Z " fill="#F1F1F6" transform="translate(590,1342)"/>
<path d="M0 0 C2.31774658 2.87119486 3.83294581 5.61605096 5.2265625 9.02734375 C5.6184375 9.98447266 6.0103125 10.94160156 6.4140625 11.92773438 C6.81367187 12.92095703 7.21328125 13.91417969 7.625 14.9375 C8.03234375 15.92685547 8.4396875 16.91621094 8.859375 17.93554688 C10.66023524 22.36912167 12.05433915 26.27169577 13 31 C4.42 31 -4.16 31 -13 31 C-9.62120189 20.86360567 -9.62120189 20.86360567 -7.7734375 16.5625 C-7.3815625 15.64855469 -6.9896875 14.73460937 -6.5859375 13.79296875 C-5.98652344 12.41044922 -5.98652344 12.41044922 -5.375 11 C-4.96765625 10.04738281 -4.5603125 9.09476563 -4.140625 8.11328125 C-1.13375235 1.13375235 -1.13375235 1.13375235 0 0 Z " fill="#F4FDF6" transform="translate(1237,1341)"/>
<path d="M0 0 C22.44 0 44.88 0 68 0 C68 4.95 68 9.9 68 15 C67.67 15 67.34 15 67 15 C67 10.38 67 5.76 67 1 C45.22 1 23.44 1 1 1 C1 5.62 1 10.24 1 15 C9.58 15 18.16 15 27 15 C27 37.11 27 59.22 27 82 C26.34 82 25.68 82 25 82 C25 60.55 25 39.1 25 17 C16.75 17 8.5 17 0 17 C0 11.39 0 5.78 0 0 Z " fill="#CAF5DB" transform="translate(1543,1322)"/>
<path d="M0 0 C0.33 0 0.66 0 1 0 C2.10936572 8.98795727 2.11974709 17.91051014 2.07516479 26.94813919 C2.06226425 29.58729098 2.05585254 32.22639188 2.05102539 34.86557007 C2.03968217 40.45206994 2.02038859 46.03852681 2 51.625 C1.9763983 58.13629206 1.95605536 64.64756132 1.94406128 71.15888596 C1.93756464 73.76315202 1.92506693 76.36734605 1.91235352 78.97158813 C1.90872435 80.5534865 1.90537221 82.13538553 1.90234375 83.71728516 C1.89717743 84.44446747 1.89201111 85.17164978 1.88668823 85.92086792 C1.88650697 87.6143332 1.93769065 89.3076814 2 91 C3.65297909 92.65297909 5.61036555 92.16692183 7.88696289 92.20532227 C8.92796646 92.22526749 9.96897003 92.24521271 11.04151917 92.26576233 C12.1737944 92.28247482 13.30606964 92.29918732 14.47265625 92.31640625 C16.20182533 92.3475779 16.20182533 92.3475779 17.96592712 92.37937927 C21.66472157 92.44499964 25.36358959 92.50381755 29.0625 92.5625 C31.56315879 92.60567335 34.06381001 92.64928724 36.56445312 92.69335938 C42.70955662 92.80069368 48.85473404 92.90243643 55 93 C54.98525131 91.93590912 54.97050262 90.87181824 54.95530701 89.77548218 C54.81692874 79.74100801 54.68421787 69.70647271 54.5570364 59.6718502 C54.49147168 54.51312402 54.42391973 49.35443991 54.35180664 44.19580078 C54.28227015 39.21622532 54.21797935 34.23660709 54.15730476 29.25691605 C54.13325359 27.35832898 54.10732142 25.45976477 54.07946587 23.56122971 C54.04073464 20.89941732 54.0087288 18.23760175 53.97827148 15.57568359 C53.96532547 14.79309174 53.95237946 14.01049988 53.93904114 13.20419312 C53.89878068 9.01848787 54.16938442 5.10445438 55 1 C55.33 1 55.66 1 56 1 C56 31.69 56 62.38 56 94 C37.52 94 19.04 94 0 94 C0 62.98 0 31.96 0 0 Z " fill="#2D944E" transform="translate(941,910)"/>
<path d="M0 0 C21.78 0 43.56 0 66 0 C66 4.62 66 9.24 66 14 C57.75 14 49.5 14 41 14 C41.33 13.34 41.66 12.68 42 12 C49.26 12 56.52 12 64 12 C64.33 8.37 64.66 4.74 65 1 C43.88 1 22.76 1 1 1 C1 4.96 1 8.92 1 13 C9.58 13 18.16 13 27 13 C27 35.11 27 57.22 27 80 C31.62 80 36.24 80 41 80 C41 80.33 41 80.66 41 81 C36.05 81 31.1 81 26 81 C26 58.89 26 36.78 26 14 C17.42 14 8.84 14 0 14 C0 9.38 0 4.76 0 0 Z " fill="#3B935B" transform="translate(1544,1323)"/>
<path d="M0 0 C13.2 0 26.4 0 40 0 C40 0.33 40 0.66 40 1 C27.13 1 14.26 1 1 1 C1.33 2.32 1.66 3.64 2 5 C2.08159255 6.94240727 2.10751619 8.88744777 2.09765625 10.83154297 C2.09435303 12.00731903 2.0910498 13.18309509 2.08764648 14.39450073 C2.07934814 15.66423737 2.0710498 16.933974 2.0625 18.2421875 C2.05671142 20.25256378 2.05092897 22.26294009 2.04548645 24.27331734 C2.03237906 28.51375713 2.0103822 32.7541599 1.98962402 36.99456787 C1.96966839 41.14449859 1.95411157 45.29440337 1.94406128 49.44437027 C1.93770296 51.36827668 1.92513066 53.29215944 1.91235352 55.21603394 C1.88960304 63.53112327 2.29654043 71.71561365 3 80 C3.99 79.505 3.99 79.505 5 79 C7.97 79 10.94 79 14 79 C14 70.75 14 62.5 14 54 C14.33 54 14.66 54 15 54 C15 62.91 15 71.82 15 81 C10.05 81 5.1 81 0 81 C0 54.27 0 27.54 0 0 Z " fill="#1D1C4D" transform="translate(649,1323)"/>
<path d="M0 0 C4.95 0 9.9 0 15 0 C15 26.73 15 53.46 15 81 C10.05 81 5.1 81 0 81 C0 70.11 0 59.22 0 48 C0.33 48 0.66 48 1 48 C1 58.56 1 69.12 1 80 C6.445 79.01 6.445 79.01 12 78 C12.85876165 73.70619175 13.1212288 70.25181598 13.11352539 65.91479492 C13.11367142 65.22156128 13.11381744 64.52832764 13.1139679 63.81408691 C13.11327451 61.53618171 13.10550915 59.25835957 13.09765625 56.98046875 C13.09579003 55.39577784 13.09436709 53.81108635 13.09336853 52.22639465 C13.08955943 48.0655049 13.07974292 43.90465032 13.06866455 39.74377441 C13.05841582 35.49390132 13.0538635 31.24402252 13.04882812 26.99414062 C13.03811916 18.66274431 13.02106211 10.33137654 13 2 C9.7 2.33 6.4 2.66 3 3 C2.67 12.9 2.34 22.8 2 33 C1.34 33 0.68 33 0 33 C0 22.11 0 11.22 0 0 Z " fill="#379255" transform="translate(1163,1323)"/>
<path d="M0 0 C4.00229288 -0.06922608 8.00304204 -0.12884797 12.00561523 -0.16479492 C13.36441117 -0.17979409 14.72315941 -0.20020038 16.08178711 -0.22631836 C32.27951473 -0.52969115 32.27951473 -0.52969115 38.4375 5.3125 C40.35974999 8.61876998 40.61558356 10.22955067 40 14 C38.19205638 17.61588724 37.05456331 19.54733637 33.29833984 21.15966797 C29.68108741 22.08125071 26.58182533 22.22719509 22.8515625 22.1953125 C22.19417084 22.1924826 21.53677917 22.18965271 20.85946655 22.18673706 C18.78111767 22.17563447 16.70321634 22.15054986 14.625 22.125 C13.20703752 22.11495731 11.78906821 22.10583373 10.37109375 22.09765625 C6.91375571 22.0774379 3.45737265 22.0382735 0 22 C0 14.74 0 7.48 0 0 Z M2 2 C2 7.94 2 13.88 2 20 C6.35454354 20.08114056 10.7075656 20.14057664 15.0625 20.1875 C16.29162109 20.21263672 17.52074219 20.23777344 18.78710938 20.26367188 C27.82268272 20.36170061 27.82268272 20.36170061 36 17 C38.48836965 13.26744552 38.54226552 11.41559065 38 7 C34.34351085 3.14037256 31.25649283 2.08735175 26.06738281 1.88647461 C24.4020752 1.89432983 24.4020752 1.89432983 22.703125 1.90234375 C20.89521484 1.90717773 20.89521484 1.90717773 19.05078125 1.91210938 C17.16939453 1.92467773 17.16939453 1.92467773 15.25 1.9375 C13.98027344 1.94201172 12.71054688 1.94652344 11.40234375 1.95117188 C8.26820905 1.96295434 5.13409858 1.98088964 2 2 Z " fill="#BAECCD" transform="translate(1379,1369)"/>
<path d="M0 0 C8.25 0 16.5 0 25 0 C25 0.66 25 1.32 25 2 C17.41 2 9.82 2 2 2 C2 23.45 2 44.9 2 67 C1.34 67 0.68 67 0 67 C0 44.89 0 22.78 0 0 Z " fill="#C0EED4" transform="translate(1585,1337)"/>
<path d="M0 0 C21.78 0 43.56 0 66 0 C66 4.62 66 9.24 66 14 C57.42 14 48.84 14 40 14 C40 13.67 40 13.34 40 13 C48.25 13 56.5 13 65 13 C65 9.04 65 5.08 65 1 C57.08104463 1.10798891 49.16217935 1.22005211 41.24338722 1.33933926 C37.56658571 1.39456189 33.88977624 1.44798081 30.21289062 1.49731445 C26.66614134 1.54496779 23.11948974 1.59731091 19.5728569 1.65294075 C18.2180664 1.67335992 16.86324912 1.69207374 15.50841141 1.70907402 C13.61443211 1.73312739 11.72053957 1.76374383 9.82666016 1.79467773 C8.20783432 1.81799416 8.20783432 1.81799416 6.55630493 1.84178162 C4.00983443 1.83212193 4.00983443 1.83212193 2 3 C1.67 5.97 1.34 8.94 1 12 C8.26 12 15.52 12 23 12 C23.33 12.66 23.66 13.32 24 14 C16.08 14 8.16 14 0 14 C0 9.38 0 4.76 0 0 Z " fill="#379258" transform="translate(1281,1323)"/>
<path d="M0 0 C0.66 0.99 1.32 1.98 2 3 C-4.7607638 10.84179963 -4.7607638 10.84179963 -8.9375 11.375 C-12.55736971 9.74975237 -15.65068025 7.71108248 -18.8515625 5.375 C-24.43018072 1.80468434 -31.18664863 2.64833108 -37.5 3.4375 C-42.03738366 5.46311771 -44.68391057 8.44335542 -47.984375 12.1015625 C-50 14 -50 14 -53 14 C-51.68212147 8.39901623 -47.5906656 5.95361692 -43 3 C-42.42378906 2.62101562 -41.84757812 2.24203125 -41.25390625 1.8515625 C-34.93557648 -0.53560542 -25.40546948 -0.21656214 -19.05859375 2.05078125 C-16.75 3.375 -16.75 3.375 -14.859375 4.7109375 C-12.61250963 6.37131902 -12.61250963 6.37131902 -8 8 C-5.36 5.36 -2.72 2.72 0 0 Z " fill="#D3F7E1" transform="translate(1092,1335)"/>
<path d="M0 0 C6.6 0.33 13.2 0.66 20 1 C20 32.35 20 63.7 20 96 C19.67 96 19.34 96 19 96 C18.67 65.64 18.34 35.28 18 4 C12.39 3.67 6.78 3.34 1 3 C0.67 2.01 0.34 1.02 0 0 Z " fill="#D3FAE2" transform="translate(920,909)"/>
<path d="M0 0 C13.2 0 26.4 0 40 0 C40 4.29 40 8.58 40 13 C26.47 13 12.94 13 -1 13 C-1 12.67 -1 12.34 -1 12 C3.08200246 11.62928012 7.16567102 11.28156032 11.25 10.9375 C12.38953125 10.83373047 13.5290625 10.72996094 14.703125 10.62304688 C21.52648868 10.06089475 27.95446654 10.06047839 34.76074219 10.84594727 C35.8691748 10.92220337 35.8691748 10.92220337 37 11 C37.33 10.67 37.66 10.34 38 10 C37.505 6.04 37.505 6.04 37 2 C18.685 1.505 18.685 1.505 0 1 C0 0.67 0 0.34 0 0 Z " fill="#1B1C4F" transform="translate(833,1357)"/>
<path d="M0 0 C4.4584922 -0.05371677 8.91634389 -0.09353771 13.375 -0.125 C15.28152344 -0.15013672 15.28152344 -0.15013672 17.2265625 -0.17578125 C18.43828125 -0.18222656 19.65 -0.18867187 20.8984375 -0.1953125 C22.01911621 -0.20578613 23.13979492 -0.21625977 24.29443359 -0.22705078 C27 0 27 0 29 2 C15.14 1.505 15.14 1.505 1 1 C1 6.61 1 12.22 1 18 C4.14618209 17.85983833 7.29181816 17.71315095 10.4375 17.5625 C11.78424805 17.50352539 11.78424805 17.50352539 13.15820312 17.44335938 C14.01220703 17.40146484 14.86621094 17.35957031 15.74609375 17.31640625 C16.93223267 17.26141968 16.93223267 17.26141968 18.14233398 17.20532227 C20.01401441 17.19436743 20.01401441 17.19436743 21 16 C23.33157492 15.65458149 25.66508361 15.32205743 28 15 C28.99 14.67 29.98 14.34 31 14 C30.67 10.04 30.34 6.08 30 2 C34 6 34 6 34.5625 9.4375 C33.86140786 13.87775021 32.47874717 15.24936271 29 18 C25.76248322 19.07917226 23.42248229 19.11425601 20.01953125 19.09765625 C18.85615234 19.09443359 17.69277344 19.09121094 16.49414062 19.08789062 C15.27919922 19.07951172 14.06425781 19.07113281 12.8125 19.0625 C11.58595703 19.05798828 10.35941406 19.05347656 9.09570312 19.04882812 C6.06378135 19.03703076 3.0318846 19.01909514 0 19 C0 12.73 0 6.46 0 0 Z " fill="#DAFDE7" transform="translate(1380,1337)"/>
<path d="M0 0 C1.98 0.495 1.98 0.495 4 1 C3.67 1.66 3.34 2.32 3 3 C37.65 3 72.3 3 108 3 C108.495 3.99 108.495 3.99 109 5 C72.7 5 36.4 5 -1 5 C-0.67 3.35 -0.34 1.7 0 0 Z " fill="#1C1C4A" transform="translate(700,1223)"/>
<path d="M0 0 C6.74435205 -0.05074705 13.48865477 -0.0857534 20.2331543 -0.10986328 C22.52711833 -0.11991528 24.82106957 -0.1335589 27.11499023 -0.15087891 C30.41393188 -0.17516209 33.71270397 -0.18649123 37.01171875 -0.1953125 C38.03585373 -0.20563507 39.05998871 -0.21595764 40.11515808 -0.22659302 C41.07577652 -0.22674408 42.03639496 -0.22689514 43.02612305 -0.22705078 C43.86773483 -0.231492 44.70934662 -0.23593323 45.57646179 -0.24050903 C48.40060392 0.03975545 50.47011643 0.71730087 53 2 C53.66 2.99 54.32 3.98 55 5 C54.1054863 4.79064316 54.1054863 4.79064316 53.19290161 4.57705688 C46.80136307 3.17721965 40.71085696 2.66682344 34.1796875 2.5859375 C33.19501495 2.56657135 32.21034241 2.5472052 31.1958313 2.5272522 C28.08897222 2.46806364 24.98207486 2.42131664 21.875 2.375 C19.75258911 2.3367642 17.63019281 2.29770933 15.5078125 2.2578125 C10.33866189 2.16241295 5.16943883 2.07816115 0 2 C0 1.34 0 0.68 0 0 Z " fill="#D3FBE3" transform="translate(1363,1321)"/>
<path d="M0 0 C1.32 0 2.64 0 4 0 C4 0.66 4 1.32 4 2 C4.7425 1.979375 5.485 1.95875 6.25 1.9375 C9.43339788 3.16744918 9.79234833 3.74527095 11.3125 6.6875 C13.76982813 12.9461643 13.82062072 19.38628448 13 26 C11.1875 29.5625 11.1875 29.5625 9 32 C7.98940479 33.66026356 6.98546999 35.32470102 6 37 C7.32 37 8.64 37 10 37 C10.33 38.32 10.66 39.64 11 41 C7.7 39.35 4.4 37.7 1 36 C2.46484375 34.33984375 3.9296875 32.6796875 5.39453125 31.01953125 C9.68878327 25.61775925 10.59472945 21.85488307 10.41796875 15.01171875 C9.58800221 9.03130567 6.59662215 5.41921969 2.1875 1.5 C1.465625 1.005 0.74375 0.51 0 0 Z " fill="#DDFBE9" transform="translate(1418,1326)"/>
<path d="M0 0 C0.33 0 0.66 0 1 0 C1 21.45 1 42.9 1 65 C-3.62 65 -8.24 65 -13 65 C-12.67 63.68 -12.34 62.36 -12 61 C-12 61.99 -12 62.98 -12 64 C-10.35369672 63.85957123 -8.70795821 63.71250671 -7.0625 63.5625 C-6.14597656 63.48128906 -5.22945312 63.40007812 -4.28515625 63.31640625 C-2.03840268 63.23955024 -2.03840268 63.23955024 -1 62 C-0.91159883 60.28232005 -0.89310127 58.56099287 -0.90234375 56.84106445 C-0.90564697 55.73934402 -0.9089502 54.6376236 -0.91235352 53.5025177 C-0.92480103 51.70109566 -0.92480103 51.70109566 -0.9375 49.86328125 C-0.94128662 48.63594772 -0.94507324 47.4086142 -0.94897461 46.14408875 C-0.96124435 42.20019633 -0.97963193 38.25635663 -1 34.3125 C-1.02658229 29.14192883 -1.04660934 23.97139514 -1.0625 18.80078125 C-1.07494751 17.01454094 -1.07494751 17.01454094 -1.08764648 15.19221497 C-1.09094971 14.07473373 -1.09425293 12.9572525 -1.09765625 11.8059082 C-1.10289307 10.82741409 -1.10812988 9.84891998 -1.11352539 8.84077454 C-0.9929641 5.8239389 -0.5553261 2.96513049 0 0 Z " fill="#288B4D" transform="translate(1584,1338)"/>
<path d="M0 0 C11.55 0 23.1 0 35 0 C35 10.56 35 21.12 35 32 C34.67 32 34.34 32 34 32 C34 21.77 34 11.54 34 1 C28.905625 1.144375 23.81125 1.28875 18.5625 1.4375 C16.95318604 1.48060303 15.34387207 1.52370605 13.68579102 1.56811523 C12.42951904 1.60622314 11.17324707 1.64433105 9.87890625 1.68359375 C7.93866577 1.73858032 7.93866577 1.73858032 5.95922852 1.79467773 C3.11444992 1.6667278 3.11444992 1.6667278 2 3 C1.8415735 5.0708472 1.74875578 7.14678029 1.68359375 9.22265625 C1.64169922 10.48271484 1.59980469 11.74277344 1.55664062 13.04101562 C1.51682404 14.38150736 1.47711186 15.7220022 1.4375 17.0625 C1.39431958 18.40691523 1.35070544 19.7513166 1.30664062 21.09570312 C1.20014642 24.3970234 1.0981354 27.69842236 1 31 C0.67 31 0.34 31 0 31 C0 20.77 0 10.54 0 0 Z " fill="#EDFFF5" transform="translate(1127,1372)"/>
<path d="M0 0 C0.33 0 0.66 0 1 0 C1.33 24.75 1.66 49.5 2 75 C10.34149382 74.77080956 10.34149382 74.77080956 14 72 C14 73.32 14 74.64 14 76 C9.38 76 4.76 76 0 76 C0 50.92 0 25.84 0 0 Z " fill="#1D1D54" transform="translate(899,1327)"/>
<path d="M0 0 C21.12 0 42.24 0 64 0 C63.67 0.66 63.34 1.32 63 2 C43.2 2 23.4 2 3 2 C2.67 4.64 2.34 7.28 2 10 C4.64 10.33 7.28 10.66 10 11 C10 11.33 10 11.66 10 12 C6.7 12 3.4 12 0 12 C0 8.04 0 4.08 0 0 Z " fill="#1F8E48" transform="translate(1545,1324)"/>
<path d="M0 0 C0.495 1.485 0.495 1.485 1 3 C0.44054688 2.855625 -0.11890625 2.71125 -0.6953125 2.5625 C-16.32311785 -1.05551281 -28.11896328 1.66662211 -42 9 C-42 8.01 -42 7.02 -42 6 C-41.01 6 -40.02 6 -39 6 C-39 5.34 -39 4.68 -39 4 C-37.02 3.67 -35.04 3.34 -33 3 C-33 2.34 -33 1.68 -33 1 C-22.80095623 -3.1188446 -10.3872246 -3.94635344 0 0 Z " fill="#DCFBE9" transform="translate(1076,1321)"/>
<path d="M0 0 C0 6.09093458 -6.91564262 10.96884727 -11 15.125 C-12.32673067 16.42344765 -13.6599286 17.71532525 -15 19 C-15.63421875 19.61746094 -16.2684375 20.23492188 -16.921875 20.87109375 C-17.52515625 21.42925781 -18.1284375 21.98742187 -18.75 22.5625 C-19.28109375 23.05878906 -19.8121875 23.55507813 -20.359375 24.06640625 C-22 25 -22 25 -24.203125 24.65234375 C-24.79609375 24.43707031 -25.3890625 24.22179687 -26 24 C-25.52691406 23.59910156 -25.05382812 23.19820312 -24.56640625 22.78515625 C-20.73001317 19.4872043 -17.05321382 16.10264984 -13.5 12.5 C-9.50448466 8.44899139 -5.31770169 4.70088717 -1 1 C-0.67 0.67 -0.34 0.34 0 0 Z " fill="#2A2C60" transform="translate(1046,916)"/>
<path d="M0 0 C13.2 0 26.4 0 40 0 C43 6 43 6 43 8 C42.01 7.67 41.02 7.34 40 7 C39.71125 6.34 39.4225 5.68 39.125 5 C38.18876657 2.78801715 38.18876657 2.78801715 35.89770508 2.39477539 C32.42409119 1.92153976 29.01660937 1.7813397 25.51171875 1.68359375 C24.4569207 1.6524221 24.4569207 1.6524221 23.3808136 1.62062073 C21.14980183 1.55559885 18.91867931 1.49646224 16.6875 1.4375 C15.16860866 1.39426964 13.64972823 1.35065395 12.13085938 1.30664062 C8.4206888 1.19996666 4.71039579 1.09856779 1 1 C1.19207031 1.61359375 1.38414063 2.2271875 1.58203125 2.859375 C2 5 2 5 0.6875 7.25 C0.130625 7.8275 -0.42625 8.405 -1 9 C-1.66 9 -2.32 9 -3 9 C-2.01 6.03 -1.02 3.06 0 0 Z " fill="#D4FAE3" transform="translate(1217,1386)"/>
<path d="M0 0 C0.66 0.33 1.32 0.66 2 1 C1.51273438 2.11761719 1.02546875 3.23523437 0.5234375 4.38671875 C-1.28882805 9.23970547 -1.45752084 13.67459522 -1.375 18.8125 C-1.36919922 19.68745117 -1.36339844 20.56240234 -1.35742188 21.46386719 C-1.22726527 27.96446654 -0.35167308 33.89684844 2 40 C0.68 39.34 -0.64 38.68 -2 38 C-2 35.69 -2 33.38 -2 31 C-2.66 31 -3.32 31 -4 31 C-4.11766716 27.52112528 -4.18773315 24.0427723 -4.25 20.5625 C-4.28351562 19.58861328 -4.31703125 18.61472656 -4.3515625 17.61132812 C-4.44226073 10.83163554 -3.29234898 5.93792027 0 0 Z " fill="#D0F6DF" transform="translate(1021,1344)"/>
<path d="M0 0 C-0.58007812 0.30550781 -1.16015625 0.61101562 -1.7578125 0.92578125 C-8.55014601 4.9047885 -12.73084894 9.35791654 -15 17 C-15.64847537 22.99419051 -15.35672764 28.99508479 -15 35 C-16.48046875 33.890625 -16.48046875 33.890625 -18 32 C-18.8562445 25.18687173 -18.39476146 18.43592143 -16 12 C-15.34 12 -14.68 12 -14 12 C-13.9175 11.278125 -13.835 10.55625 -13.75 9.8125 C-12.48142815 5.05535557 -10.08804523 2.66615014 -5.9375 0.125 C-3 -1 -3 -1 0 0 Z " fill="#3B985B" transform="translate(1051,1338)"/>
<path d="M0 0 C5 7.5 5 7.5 5 12 C-3.58 12 -12.16 12 -21 12 C-20.34 10.68 -19.68 9.36 -19 8 C-19 8.66 -19 9.32 -19 10 C-9.595 9.505 -9.595 9.505 0 9 C0 6.03 0 3.06 0 0 Z " fill="#C6F6D8" transform="translate(1245,1360)"/>
<path d="M0 0 C3.20564755 1.81215944 3.89457254 4.94761917 5.06640625 8.2578125 C5.55643987 9.5732343 6.04732252 10.88834013 6.5390625 12.203125 C6.77512207 12.85571289 7.01118164 13.50830078 7.25439453 14.18066406 C8.00188795 16.12755572 8.86307487 17.98833246 9.75 19.875 C11.04760801 23.2463554 11.04407662 23.90209338 10.00390625 27.1328125 C9.70621338 26.41101807 9.40852051 25.68922363 9.10180664 24.94555664 C7.75924263 21.6944072 6.41287755 18.44484556 5.06640625 15.1953125 C4.36354492 13.49084961 4.36354492 13.49084961 3.64648438 11.75195312 C3.19853516 10.67236328 2.75058594 9.59277344 2.2890625 8.48046875 C1.875354 7.48023682 1.46164551 6.48000488 1.03540039 5.44946289 C0.20689333 3.21634975 0.20689333 3.21634975 -0.99609375 2.1328125 C-3.96609375 9.0628125 -3.96609375 9.0628125 -6.99609375 16.1328125 C-8.15259304 12.66331462 -7.78572237 11.55747147 -6.74609375 8.1328125 C-6.4934375 7.2665625 -6.24078125 6.4003125 -5.98046875 5.5078125 C-4.65939102 2.32045036 -3.63733329 0.24201435 0 0 Z " fill="#379A58" transform="translate(1237.99609375,1339.8671875)"/>
<path d="M0 0 C0.99 0 1.98 0 3 0 C3 0.66 3 1.32 3 2 C12.24 2 21.48 2 31 2 C27.19137525 5.80862475 21.89109495 5.18652969 16.75 5.25 C10.47731788 5.22542534 5.75857136 4.42466162 0 2 C0 1.34 0 0.68 0 0 Z " fill="#44A162" transform="translate(1044,1401)"/>
<path d="M0 0 C-0.99 0.66 -1.98 1.32 -3 2 C-5.57766023 3.80895766 -8.15048898 5.62464787 -10.72265625 7.44140625 C-13 9 -13 9 -15 10 C-16.01351664 11.65848177 -17.01120795 13.32665961 -18 15 C-19.33333333 16.66666667 -20.66666667 18.33333333 -22 20 C-23.0268343 21.6502694 -24.03567924 23.31243867 -25 25 C-25.33 24.34 -25.66 23.68 -26 23 C-22.27314283 13.5208198 -15.64729061 5.23443226 -6.625 0.375 C-3 -1 -3 -1 0 0 Z " fill="#35985A" transform="translate(1047,1325)"/>
<path d="M0 0 C-1.54444076 3.48509931 -3.62475353 6.14322337 -6.0625 9.0625 C-6.8565625 10.01898437 -7.650625 10.97546875 -8.46875 11.9609375 C-9.3040625 12.96382812 -10.139375 13.96671875 -11 15 C-12.69187556 17.05895667 -14.37700619 19.12330346 -16.0625 21.1875 C-17.375 22.79166667 -18.6875 24.39583333 -20 26 C-20.33 24.68 -20.66 23.36 -21 22 C-20.34 22 -19.68 22 -19 22 C-18.34 20.35 -17.68 18.7 -17 17 C-16.34 17 -15.68 17 -15 17 C-15 16.34 -15 15.68 -15 15 C-14.34 15 -13.68 15 -13 15 C-13 14.01 -13 13.02 -13 12 C-12.01 12 -11.02 12 -10 12 C-10.33 11.01 -10.66 10.02 -11 9 C-10.195625 8.401875 -9.39125 7.80375 -8.5625 7.1875 C-5.77672016 5.19052724 -5.77672016 5.19052724 -5 2 C-2 0 -2 0 0 0 Z " fill="#D9F9E6" transform="translate(942,883)"/>
<path d="M0 0 C0.66 0 1.32 0 2 0 C1.42098044 4.13585402 0.47957878 7.74133771 -1.06640625 11.6171875 C-1.6706543 13.14472656 -1.6706543 13.14472656 -2.28710938 14.703125 C-2.70798828 15.74984375 -3.12886719 16.7965625 -3.5625 17.875 C-3.98724609 18.94492188 -4.41199219 20.01484375 -4.84960938 21.1171875 C-5.89446849 23.74694526 -6.94473782 26.37440342 -8 29 C-8.99 28.67 -9.98 28.34 -11 28 C-9.35 23.38 -7.7 18.76 -6 14 C-5.34 14 -4.68 14 -4 14 C-3.8453125 12.4840625 -3.8453125 12.4840625 -3.6875 10.9375 C-2.96295233 6.78781792 -1.77730734 3.78643737 0 0 Z " fill="#262757" transform="translate(853,1106)"/>
<path d="M0 0 C12.53049663 -0.31678222 25.03646853 0.33605959 35 9 C34.34 9.33 33.68 9.66 33 10 C31.02595268 9.11940577 29.09331916 8.1448835 27.1875 7.125 C19.90902033 3.23711645 14.28533415 2.85899751 6.1875 2.9375 C4.86202148 2.94426758 4.86202148 2.94426758 3.50976562 2.95117188 C1.33981441 2.96290134 -0.83010172 2.98083505 -3 3 C-2.01 2.67 -1.02 2.34 0 2 C0 1.34 0 0.68 0 0 Z " fill="#489F68" transform="translate(1053,1321)"/>
<path d="M0 0 C0.66 0.33 1.32 0.66 2 1 C-2.82247826 5.82247826 -12.89474563 6.18958609 -19.5 6.25 C-23.06293859 6.13241127 -26.50561479 5.73566004 -30 5 C-30 4.34 -30 3.68 -30 3 C-31.65 3 -33.3 3 -35 3 C-35 2.34 -35 1.68 -35 1 C-34.34515625 1.144375 -33.6903125 1.28875 -33.015625 1.4375 C-21.54436017 3.77063861 -11.12649043 3.70883014 0 0 Z " fill="#D3F7E1" transform="translate(1508,1402)"/>
<path d="M0 0 C1.31476197 3.94428591 0.33813734 5.02987969 -1.421875 8.734375 C-2.21851563 10.43207031 -2.21851563 10.43207031 -3.03125 12.1640625 C-3.5984375 13.34742188 -4.165625 14.53078125 -4.75 15.75 C-5.84966336 18.07779207 -6.94864119 20.40590813 -8.046875 22.734375 C-8.56314453 23.82298828 -9.07941406 24.91160156 -9.61132812 26.03320312 C-11.15300591 29.32688604 -12.60565194 32.64178144 -14 36 C-14.33 36 -14.66 36 -15 36 C-15 34.35 -15 32.7 -15 31 C-14.34 31 -13.68 31 -13 31 C-13 29.35 -13 27.7 -13 26 C-12.34 26 -11.68 26 -11 26 C-11.061875 25.2575 -11.12375 24.515 -11.1875 23.75 C-10.9648157 20.48396358 -10.01393553 19.49728006 -8 17 C-7.29485154 14.85266073 -7.29485154 14.85266073 -7 13 C-6.34 13 -5.68 13 -5 13 C-4.9175 12.154375 -4.835 11.30875 -4.75 10.4375 C-3.84266147 6.27886509 -2.23458727 3.60417301 0 0 Z " fill="#CDF8DE" transform="translate(1220,1342)"/>
<path d="M0 0 C5.40316312 8.10474467 3.55364104 19.7826184 1.73046875 28.9140625 C0.87884279 31.34597834 -0.36721961 33.02277004 -2 35 C-1.10344663 28.4679683 -1.10344663 28.4679683 -0.47094727 25.60668945 C0.02914282 22.8386947 0.11336168 20.29174033 0.09765625 17.48046875 C0.09443359 16.45888672 0.09121094 15.43730469 0.08789062 14.38476562 C0.07951172 13.32966797 0.07113281 12.27457031 0.0625 11.1875 C0.05798828 10.11306641 0.05347656 9.03863281 0.04882812 7.93164062 C0.03707729 5.28770317 0.02064787 2.64388048 0 0 Z " fill="#379459" transform="translate(1531,1348)"/>
<path d="M0 0 C3.37638294 3.37638294 3.26877085 6.85113489 3.4375 11.4375 C3.40599928 19.02129853 1.29494538 24.7718067 -3 31 C-3.99 31.66 -4.98 32.32 -6 33 C-6 31.68 -6 30.36 -6 29 C-5.34 29 -4.68 29 -4 29 C-3.87625 28.4225 -3.7525 27.845 -3.625 27.25 C-2.99351176 24.97664233 -2.11141809 23.0746471 -1 21 C-0.34 21 0.32 21 1 21 C0.67 14.07 0.34 7.14 0 0 Z " fill="#CFF6DE" transform="translate(1515,1351)"/>
<path d="M0 0 C0.89525391 -0.01611328 1.79050781 -0.03222656 2.71289062 -0.04882812 C9.20021105 -0.05351211 14.71207752 1.13454287 20.8125 3.3125 C20.8125 3.6425 20.8125 3.9725 20.8125 4.3125 C19.37458484 4.17081863 17.9371763 4.02398957 16.5 3.875 C15.69949219 3.79378906 14.89898438 3.71257812 14.07421875 3.62890625 C11.8125 3.3125 11.8125 3.3125 8.8125 2.3125 C1.19433613 1.85878664 -5.84186607 2.23123705 -13.1875 4.3125 C-13.5175 4.6425 -13.8475 4.9725 -14.1875 5.3125 C-15.85367115 5.35313832 -17.52138095 5.355221 -19.1875 5.3125 C-13.03520709 0.29952059 -7.6833861 -0.02707324 0 0 Z " fill="#2E8F51" transform="translate(1489.1875,1321.6875)"/>
<path d="M0 0 C0.33 0.66 0.66 1.32 1 2 C-0.2739589 4.03833424 -1.61061923 6.03852126 -3 8 C-3.66 8 -4.32 8 -5 8 C-5.2475 8.72574219 -5.495 9.45148437 -5.75 10.19921875 C-7.12427454 13.27845264 -8.74655929 15.31466039 -11 17.8125 C-11.70125 18.60269531 -12.4025 19.39289062 -13.125 20.20703125 C-15 22 -15 22 -17 22 C-17.33 22.99 -17.66 23.98 -18 25 C-18.66 24.67 -19.32 24.34 -20 24 C-19.29875 23.17757812 -18.5975 22.35515625 -17.875 21.5078125 C-12.64096764 15.35426296 -7.47080448 9.16714036 -2.4609375 2.828125 C-1 1 -1 1 0 0 Z " fill="#42A062" transform="translate(960,862)"/>
<path d="M0 0 C-0.556875 0.32871094 -1.11375 0.65742187 -1.6875 0.99609375 C-11.87268576 7.34463014 -17.66527894 14.85059728 -22 26 C-23.08069919 23.24257963 -23.03310018 22.09874188 -22.07421875 19.23828125 C-21.61660156 18.27277344 -21.15898438 17.30726562 -20.6875 16.3125 C-20.23761719 15.33925781 -19.78773437 14.36601563 -19.32421875 13.36328125 C-18 11 -18 11 -16 10 C-15.67 9.01 -15.34 8.02 -15 7 C-12.4375 5.8125 -12.4375 5.8125 -10 5 C-10 4.01 -10 3.02 -10 2 C-3.375 -1.125 -3.375 -1.125 0 0 Z " fill="#D1F8E2" transform="translate(1472,1326)"/>
<path d="M0 0 C0.66 0 1.32 0 2 0 C-0.75190858 9.87449551 -4.40127837 19.41030026 -8 29 C-8.66 28.67 -9.32 28.34 -10 28 C-8.46579056 21.78180266 -6.7073491 15.95046694 -3.984375 10.1484375 C-2.46521607 6.83281285 -1.24596251 3.4263969 0 0 Z " fill="#282858" transform="translate(842,1136)"/>
<path d="M0 0 C0.66 0 1.32 0 2 0 C2 0.66 2 1.32 2 2 C10.58 2 19.16 2 28 2 C24.21219718 5.78780282 18.16803228 5.09068207 13.0625 5.1875 C8.03497952 5.15588037 3.79429883 4.47516887 -1 3 C-0.67 2.01 -0.34 1.02 0 0 Z " fill="#3C9A5C" transform="translate(1477,1401)"/>
<path d="M0 0 C0.99 0.33 1.98 0.66 3 1 C4.11422296 3.35621016 5.05178845 5.62220896 5.9375 8.0625 C6.45807351 9.43988791 6.98149067 10.8162046 7.5078125 12.19140625 C7.88728027 13.18358154 7.88728027 13.18358154 8.27441406 14.19580078 C9.15160582 16.3769741 10.19180571 18.4344868 11.3125 20.5 C13.1217188 24.25245381 13.65850182 26.9020218 14 31 C11.43873834 28.43873834 10.5770832 25.9099656 9.1875 22.5625 C8.65736988 21.29510391 8.12610436 20.02818218 7.59375 18.76171875 C7.32820313 18.12927246 7.06265625 17.49682617 6.7890625 16.84521484 C5.27026189 13.29351466 3.62225221 9.80078303 1.98046875 6.3046875 C1.08734272 4.20530759 0.47702626 2.22612257 0 0 Z " fill="#D1F7DE" transform="translate(1263,1364)"/>
<path d="M0 0 C0.66 0.99 1.32 1.98 2 3 C1.38511719 3.56847656 0.77023437 4.13695312 0.13671875 4.72265625 C-4.5687118 9.21795593 -8.00867692 12.76052101 -10 19 C-10.66 18.67 -11.32 18.34 -12 18 C-10.17301482 10.69205928 -5.4604995 5.04046107 0 0 Z " fill="#2E9657" transform="translate(1463,1331)"/>
<path d="M0 0 C0.33 0 0.66 0 1 0 C0.7834375 1.7634375 0.7834375 1.7634375 0.5625 3.5625 C-0.19953786 10.35552324 -0.57762966 17.17916837 -1 24 C-3.51480797 21.48519203 -3.28684241 19.86896006 -3.32226562 16.4296875 C-3.31904297 15.71039062 -3.31582031 14.99109375 -3.3125 14.25 C-3.32861328 13.54617188 -3.34472656 12.84234375 -3.36132812 12.1171875 C-3.36576294 7.34533116 -2.49793939 4.19179275 0 0 Z " fill="#D3F8E0" transform="translate(1038,1349)"/>
<path d="M0 0 C0.66 0 1.32 0 2 0 C1.95359375 1.23234375 1.9071875 2.4646875 1.859375 3.734375 C1.6012398 13.70585556 2.19517102 21.64080014 6 31 C6 31.66 6 32.32 6 33 C5.34 33 4.68 33 4 33 C0.00604984 25.5100331 -0.28402382 17.77401782 -0.125 9.4375 C-0.11597656 8.52419922 -0.10695313 7.61089844 -0.09765625 6.66992188 C-0.07437253 4.44632681 -0.0416771 2.22331323 0 0 Z " fill="#D6FCE6" transform="translate(1447,1352)"/>
<path d="M0 0 C-1.55603771 3.81936528 -3.95604931 6.26044438 -7 9 C-7.66 9 -8.32 9 -9 9 C-9.33 10.65 -9.66 12.3 -10 14 C-10.99 14 -11.98 14 -13 14 C-11.49665796 8.65478385 -7.82879909 4.86491984 -4 1 C-2 0 -2 0 0 0 Z " fill="#DFFBEA" transform="translate(1479,1339)"/>
<path d="M0 0 C0.99 0.33 1.98 0.66 3 1 C-1.51567309 7.12352638 -6.22073438 13.0805035 -11 19 C-12 16 -12 16 -11.0625 13.8125 C-10.5365625 12.9153125 -10.5365625 12.9153125 -10 12 C-9.01 12 -8.02 12 -7 12 C-6.67 10.68 -6.34 9.36 -6 8 C-5.34 8 -4.68 8 -4 8 C-3.8453125 7.13375 -3.8453125 7.13375 -3.6875 6.25 C-2.90207202 3.67950842 -1.69495803 2.06342716 0 0 Z " fill="#2B2C5E" transform="translate(957,821)"/>
<path d="M0 0 C3.21524305 1.40844718 5.32183868 3.10344786 7.75 5.625 C8.67039062 6.57246094 8.67039062 6.57246094 9.609375 7.5390625 C10.29773438 8.26222656 10.29773438 8.26222656 11 9 C10.34 10.32 9.68 11.64 9 13 C8.01 13 7.02 13 6 13 C5.7525 11.9275 5.505 10.855 5.25 9.75 C3.98470426 5.95411278 2.8930687 4.60376183 0 2 C0 1.34 0 0.68 0 0 Z " fill="#31315D" transform="translate(529,1382)"/>
<path d="M0 0 C-1.60949271 1.40181624 -3.29668066 2.71382009 -5 4 C-5.57363281 4.45503906 -6.14726563 4.91007812 -6.73828125 5.37890625 C-14.20092759 10.46509822 -22.35719513 9.44652838 -31 9 C-31 8.67 -31 8.34 -31 8 C-29.98679687 7.96261719 -28.97359375 7.92523437 -27.9296875 7.88671875 C-26.57809061 7.82101612 -25.22652971 7.75457029 -23.875 7.6875 C-23.20984375 7.66494141 -22.5446875 7.64238281 -21.859375 7.61914062 C-15.92940328 7.29938725 -11.92810941 5.64594705 -7.4375 1.8125 C-4.66116909 -0.25195119 -3.37425632 -0.38562929 0 0 Z " fill="#D0F8E0" transform="translate(1084,1382)"/>
<path d="M0 0 C0.66 0.99 1.32 1.98 2 3 C1.36749103 4.93081684 0.71504677 6.85888775 -0.06640625 8.734375 C-1.33324352 11.80870811 -2.32709233 14.95565052 -3.3515625 18.1171875 C-4 20 -4 20 -5 22 C-5.66 22 -6.32 22 -7 22 C-6.35983027 16.86243532 -4.80299667 12.41209819 -2.9375 7.625 C-2.65583984 6.88894531 -2.37417969 6.15289063 -2.08398438 5.39453125 C-1.39433382 3.5944264 -0.69786068 1.7969379 0 0 Z " fill="#373867" transform="translate(799,960)"/>
<path d="M0 0 C1.65 0.99 3.3 1.98 5 3 C3.30975098 8.07074705 -1.57474743 10.29011683 -6 13 C-9.625 14.4375 -9.625 14.4375 -12 15 C-12 14.34 -12 13.68 -12 13 C-11.21753906 12.62488281 -10.43507813 12.24976563 -9.62890625 11.86328125 C-8.61699219 11.35152344 -7.60507813 10.83976562 -6.5625 10.3125 C-5.55316406 9.81363281 -4.54382812 9.31476563 -3.50390625 8.80078125 C-0.79262017 7.22393485 -0.79262017 7.22393485 -0.15234375 4.41796875 C-0.05968784 2.94735322 0 1.47353153 0 0 Z " fill="#359654" transform="translate(1088,1388)"/>
<path d="M0 0 C1.65 0.99 3.3 1.98 5 3 C3.59155282 6.21524305 1.89655214 8.32183868 -0.625 10.75 C-1.57246094 11.67039062 -1.57246094 11.67039062 -2.5390625 12.609375 C-3.02117187 13.06828125 -3.50328125 13.5271875 -4 14 C-6.475 13.01 -6.475 13.01 -9 12 C-9 11.67 -9 11.34 -9 11 C-7.02 11 -5.04 11 -3 11 C-0.99464511 7.25667087 0 4.26323685 0 0 Z " fill="#39965A" transform="translate(1088,1330)"/>
<path d="M0 0 C1.01416992 -0.01160156 1.01416992 -0.01160156 2.04882812 -0.0234375 C7.0590035 -0.0034965 7.0590035 -0.0034965 9.3125 2.25 C8.22710938 2.29898437 7.14171875 2.34796875 6.0234375 2.3984375 C4.57810216 2.47351986 3.13279081 2.54906528 1.6875 2.625 C0.97464844 2.6559375 0.26179688 2.686875 -0.47265625 2.71875 C-4.85902608 2.96020155 -8.5469834 3.64342731 -12.6875 5.25 C-12.6875 4.26 -12.6875 3.27 -12.6875 2.25 C-8.38615935 0.15340843 -4.75362125 -0.01862339 0 0 Z " fill="#292658" transform="translate(507.6875,1333.75)"/>
<path d="M0 0 C0 0.66 0 1.32 0 2 C0.99 2.33 1.98 2.66 3 3 C0.27183943 4.36408028 -1.1631098 3.38025651 -3.94970703 2.52050781 C-7.56438116 1.6028506 -11.22458023 1.52771649 -14.9375 1.375 C-15.71673828 1.33632812 -16.49597656 1.29765625 -17.29882812 1.2578125 C-19.19887379 1.16455873 -21.09940278 1.08124038 -23 1 C-23 0.67 -23 0.34 -23 0 C-15.50042814 -1.99988583 -7.57515273 -1.12224485 0 0 Z " fill="#B7E8CA" transform="translate(1506,1321)"/>
<path d="M0 0 C2.50298434 2.93828597 3.46930939 5.17902761 4 9 C2.68 8.01 1.36 7.02 0 6 C-0.18175781 6.56589844 -0.36351562 7.13179687 -0.55078125 7.71484375 C-0.80214844 8.44832031 -1.05351563 9.18179687 -1.3125 9.9375 C-1.55613281 10.66839844 -1.79976562 11.39929687 -2.05078125 12.15234375 C-3 14 -3 14 -6 15 C-3.10933941 4.44191344 -3.10933941 4.44191344 0 0 Z " fill="#C4F3D6" transform="translate(1237,1341)"/>
<path d="M0 0 C0.66 0 1.32 0 2 0 C2.72200364 7.90192868 2.26245443 12.97578672 -2.4921875 19.453125 C-2.98976563 19.96359375 -3.48734375 20.4740625 -4 21 C-4.66 21 -5.32 21 -6 21 C-6 20.34 -6 19.68 -6 19 C-5.34 19 -4.68 19 -4 19 C-3.5359375 17.5459375 -3.5359375 17.5459375 -3.0625 16.0625 C-2 13 -2 13 -1 12 C-0.76572222 9.98405418 -0.58663876 7.961526 -0.4375 5.9375 C-0.35371094 4.83277344 -0.26992187 3.72804688 -0.18359375 2.58984375 C-0.12300781 1.73519531 -0.06242187 0.88054687 0 0 Z " fill="#3D985C" transform="translate(1427,1338)"/>
<path d="M0 0 C0.66 0.33 1.32 0.66 2 1 C-2.37857699 7.13000779 -8.35990591 11.89797765 -15.8125 13.66796875 C-16.534375 13.77753906 -17.25625 13.88710937 -18 14 C-18 13.34 -18 12.68 -18 12 C-16.68 12 -15.36 12 -14 12 C-14 11.34 -14 10.68 -14 10 C-6 6 -6 6 -3.8125 5 C-1.50737973 3.7282095 -0.96030234 2.40075585 0 0 Z " fill="#359457" transform="translate(1523,1389)"/>
<path d="M0 0 C0.33 0 0.66 0 1 0 C1.6917591 8.17300563 1.43676628 14.13440946 -3.265625 21.03125 C-5.52277584 23.59342122 -7.77203902 24.92401301 -11 26 C-9.85927916 22.57783747 -8.55763777 21.48456241 -6 19 C-2.11407466 14.33688959 -0.88805934 11.92536827 -0.4375 5.875 C-0.35371094 4.77929688 -0.26992187 3.68359375 -0.18359375 2.5546875 C-0.12300781 1.71164062 -0.06242187 0.86859375 0 0 Z " fill="#3C985C" transform="translate(1433,1375)"/>
<path d="M0 0 C2.25245881 2.68841859 3.88213958 4.64641875 5 8 C-0.94 8 -6.88 8 -13 8 C-12.67 7.01 -12.34 6.02 -12 5 C-11.67 5.33 -11.34 5.66 -11 6 C-9.31391034 6.07205511 -7.62499341 6.08386068 -5.9375 6.0625 C-5.01839844 6.05347656 -4.09929688 6.04445313 -3.15234375 6.03515625 C-2.44207031 6.02355469 -1.73179687 6.01195312 -1 6 C-0.67 4.02 -0.34 2.04 0 0 Z " fill="#252451" transform="translate(713,1396)"/>
<path d="M0 0 C0.33 1.32 0.66 2.64 1 4 C0.34 4 -0.32 4 -1 4 C-1.144375 4.598125 -1.28875 5.19625 -1.4375 5.8125 C-1.8872439 7.56150404 -2.42892341 9.28677023 -3 11 C-1.68 11 -0.36 11 1 11 C1.33 12.32 1.66 13.64 2 15 C-1.3 13.35 -4.6 11.7 -8 10 C-6.50260417 8.27473958 -5.00520833 6.54947917 -3.5078125 4.82421875 C-1.8359553 2.86501788 -1.8359553 2.86501788 0 0 Z " fill="#CCF7DA" transform="translate(1427,1352)"/>
<path d="M0 0 C4.3749437 -0.05826088 8.74978698 -0.09368457 13.125 -0.125 C14.3625 -0.14175781 15.6 -0.15851563 16.875 -0.17578125 C18.07382813 -0.18222656 19.27265625 -0.18867187 20.5078125 -0.1953125 C21.60754395 -0.20578613 22.70727539 -0.21625977 23.84033203 -0.22705078 C27.18456942 0.01326299 29.87708695 0.81090663 33 2 C32.67 2.99 32.34 3.98 32 5 C31.28585937 4.51917969 30.57171875 4.03835938 29.8359375 3.54296875 C24.54275758 0.89637879 18.40760131 1.42213762 12.625 1.3125 C11.41199219 1.27833984 10.19898438 1.24417969 8.94921875 1.20898438 C5.96623819 1.12677625 2.98354158 1.05753474 0 1 C0 0.67 0 0.34 0 0 Z " fill="#2D9251" transform="translate(1379,1335)"/>
<path d="M0 0 C5.28 0 10.56 0 16 0 C20 7.75 20 7.75 20 10 C18.68 9.34 17.36 8.68 16 8 C16 6.02 16 4.04 16 2 C10.72 2 5.44 2 0 2 C0 1.34 0 0.68 0 0 Z " fill="#3D975C" transform="translate(1229,1323)"/>
<path d="M0 0 C0.99 0 1.98 0 3 0 C3.17015625 0.556875 3.3403125 1.11375 3.515625 1.6875 C4.80105455 5.73523562 6.17759356 9.50198941 8.1875 13.25 C9.79272595 16.30176036 10.43889723 18.48882217 10 22 C7.82052083 19.82052083 7.17146809 18.27567673 6.0546875 15.4296875 C5.70019531 14.53378906 5.34570312 13.63789062 4.98046875 12.71484375 C4.61566406 11.77769531 4.25085937 10.84054687 3.875 9.875 C3.50246094 8.93011719 3.12992188 7.98523437 2.74609375 7.01171875 C1.82606664 4.67626533 0.91091917 2.33901761 0 0 Z " fill="#D6F9E3" transform="translate(1245,1323)"/>
<path d="M0 0 C-5.44586747 4.81749815 -12.29930545 4.18191347 -19.1875 4.1875 C-19.99380859 4.19974609 -20.80011719 4.21199219 -21.63085938 4.22460938 C-22.79391602 4.22750977 -22.79391602 4.22750977 -23.98046875 4.23046875 C-24.68067139 4.23457764 -25.38087402 4.23868652 -26.10229492 4.24291992 C-28 4 -28 4 -31 2 C-29.74445313 2.03480469 -28.48890625 2.06960938 -27.1953125 2.10546875 C-15.23514348 2.43894459 -15.23514348 2.43894459 -3.71484375 -0.44140625 C-2 -1 -2 -1 0 0 Z " fill="#DDFEE9" transform="translate(1080,1403)"/>
<path d="M0 0 C0.66 0 1.32 0 2 0 C-0.19037174 6.72045875 -2.55765661 13.36724003 -5 20 C-5.33 20 -5.66 20 -6 20 C-5.81895467 12.26442661 -3.85167232 6.6800221 0 0 Z " fill="#282959" transform="translate(881,1033)"/>
<path d="M0 0 C0.33 0 0.66 0 1 0 C1 1.65 1 3.3 1 5 C-4.28 5 -9.56 5 -15 5 C-15 4.01 -15 3.02 -15 2 C-10.05 2 -5.1 2 0 2 C0 1.34 0 0.68 0 0 Z " fill="#272754" transform="translate(563,1399)"/>
<path d="M0 0 C3 1 3 1 5 5 C-1.27 5 -7.54 5 -14 5 C-14 4.34 -14 3.68 -14 3 C-7.07 3.495 -7.07 3.495 0 4 C0 2.68 0 1.36 0 0 Z " fill="#282952" transform="translate(964,1399)"/>
<path d="M0 0 C0.66 1.32 1.32 2.64 2 4 C1.01 5.98 0.02 7.96 -1 10 C-6.94 10 -12.88 10 -19 10 C-19 9.67 -19 9.34 -19 9 C-13.72 9 -8.44 9 -3 9 C-2.01 6.03 -1.02 3.06 0 0 Z " fill="#D2F7DF" transform="translate(1213,1395)"/>
<path d="M0 0 C0.67224609 -0.00322266 1.34449219 -0.00644531 2.03710938 -0.00976562 C5.70708778 0.03032351 7.30992617 0.22745078 10.4375 2.3125 C9.66664062 2.30089844 8.89578125 2.28929687 8.1015625 2.27734375 C7.09867188 2.26832031 6.09578125 2.25929688 5.0625 2.25 C3.56589844 2.23259766 3.56589844 2.23259766 2.0390625 2.21484375 C-0.54682453 2.13243398 -0.54682453 2.13243398 -2.5625 3.3125 C-4.10273996 3.38200541 -5.64584988 3.39702357 -7.1875 3.375 C-8.41339844 3.36146484 -8.41339844 3.36146484 -9.6640625 3.34765625 C-10.60378906 3.33025391 -10.60378906 3.33025391 -11.5625 3.3125 C-7.94634148 -0.19267667 -4.89964441 -0.06226332 0 0 Z " fill="#D5F9E4" transform="translate(1490.5625,1335.6875)"/>
<path d="M0 0 C0 0.66 0 1.32 0 2 C-6.6 2 -13.2 2 -20 2 C-20 1.34 -20 0.68 -20 0 C-17.60583268 -0.39149906 -15.21122464 -0.76351777 -12.8125 -1.125 C-12.13896484 -1.23714844 -11.46542969 -1.34929687 -10.77148438 -1.46484375 C-6.55969989 -2.08120245 -3.79025175 -1.98712228 0 0 Z " fill="#43A065" transform="translate(1072,1335)"/>
<path d="M0 0 C5.6925109 0.37950073 8.1434604 0.59252617 12 5 C14.1381966 5.7872678 14.1381966 5.7872678 16 6 C16 7.65 16 9.3 16 11 C15.67 10.34 15.34 9.68 15 9 C13.68592505 8.29613264 12.34882408 7.63474075 11 7 C9.63586351 6.18308909 8.28161087 5.34945735 6.9375 4.5 C6.26589844 4.0771875 5.59429688 3.654375 4.90234375 3.21875 C3.25631168 2.16420789 1.62654248 1.08436165 0 0 Z " fill="#D5F7E3" transform="translate(1078,1324)"/>
<path d="M0 0 C1.98 0.495 1.98 0.495 4 1 C3.67 1.66 3.34 2.32 3 3 C8.28 3.33 13.56 3.66 19 4 C19 4.33 19 4.66 19 5 C12.4 5 5.8 5 -1 5 C-0.67 3.35 -0.34 1.7 0 0 Z " fill="#252654" transform="translate(700,1223)"/>
<path d="M0 0 C0.33 0.99 0.66 1.98 1 3 C0.34 4.32 -0.32 5.64 -1 7 C3.62 7 8.24 7 13 7 C13 7.33 13 7.66 13 8 C6.73 8 0.46 8 -6 8 C-4.02 5.36 -2.04 2.72 0 0 Z " fill="#3D955C" transform="translate(927,902)"/>
<path d="M0 0 C4.875 3.75 4.875 3.75 6 6 C6.45717449 10.02313554 6.12086548 11.78244214 4.125 15.375 C3.42375 16.24125 2.7225 17.1075 2 18 C1.34 18 0.68 18 0 18 C0 17.34 0 16.68 0 16 C0.66 16 1.32 16 2 16 C3.18234854 12.30516081 3.2804701 8.85646386 3 5 C1.60414215 3.18523997 1.60414215 3.18523997 0 2 C0 1.34 0 0.68 0 0 Z " fill="#C8F6D8" transform="translate(1413,1371)"/>
<path d="M0 0 C5.28 0 10.56 0 16 0 C13 3 13 3 9.86328125 3.07421875 C8.10564453 2.88279297 8.10564453 2.88279297 6.3125 2.6875 C5.13300781 2.56761719 3.95351562 2.44773437 2.73828125 2.32421875 C1.83464844 2.21722656 0.93101563 2.11023437 0 2 C0 1.34 0 0.68 0 0 Z " fill="#E3FDED" transform="translate(1570,1404)"/>
<path d="M0 0 C5.28 0 10.56 0 16 0 C15.67 0.99 15.34 1.98 15 3 C9.47322267 3.19392201 5.24385089 2.7479503 0 1 C0 0.67 0 0.34 0 0 Z " fill="#D9F9E5" transform="translate(1305,1404)"/>
<path d="M0 0 C0.66 0.99 1.32 1.98 2 3 C1.019424 7.72459344 -0.72560098 11.76134727 -3 16 C-3.66 16 -4.32 16 -5 16 C-3.41078475 10.63904723 -1.81027062 5.29156027 0 0 Z " fill="#333565" transform="translate(809,934)"/>
<path d="M0 0 C0.66 0.33 1.32 0.66 2 1 C-1.75264754 5.96387672 -5.45890328 10.73412126 -10 15 C-9.40312566 11.65750371 -8.26396123 9.53563658 -6 7 C-5.34 7 -4.68 7 -4 7 C-4 6.01 -4 5.02 -4 4 C-3.34 4 -2.68 4 -2 4 C-1.34 2.68 -0.68 1.36 0 0 Z " fill="#D9FAE6" transform="translate(955,865)"/>
<path d="M0 0 C2.33936818 2.12669835 3.80653848 4.06224856 5 7 C5 7.99 5 8.98 5 10 C3.02 9.34 1.04 8.68 -1 8 C-0.67 5.36 -0.34 2.72 0 0 Z M-3 8 C-1 9 -1 9 -1 9 Z " fill="#2A2B57" transform="translate(629,1394)"/>
<path d="M0 0 C0 0.99 0 1.98 0 3 C-6.91284647 7.04654428 -14.25824503 6.26901851 -22 6 C-22 5.67 -22 5.34 -22 5 C-20.62328125 4.96132812 -20.62328125 4.96132812 -19.21875 4.921875 C-11.76336206 4.57729825 -6.37404296 3.95190663 0 0 Z " fill="#52A770" transform="translate(1078,1386)"/>
<path d="M0 0 C6.88859977 0.70652305 13.7403157 3.42636148 19 8 C18.01 8.495 18.01 8.495 17 9 C15.02595268 8.11940577 13.09331916 7.1448835 11.1875 6.125 C7.42798725 4.11681307 4.2344552 2.61051295 0 2 C0 1.34 0 0.68 0 0 Z " fill="#3D995D" transform="translate(1069,1322)"/>
<path d="M0 0 C4.25209792 4.12324647 8.13635705 8.51282966 12 13 C11.34 13.66 10.68 14.32 10 15 C8.82739389 13.71372289 7.6620717 12.42080217 6.5 11.125 C5.8503125 10.40570312 5.200625 9.68640625 4.53125 8.9453125 C3 7 3 7 3 5 C2.01 4.67 1.02 4.34 0 4 C0 2.68 0 1.36 0 0 Z " fill="#409F5E" transform="translate(972,856)"/>
<path d="M0 0 C0.66 0 1.32 0 2 0 C2.66 1.32 3.32 2.64 4 4 C3.236875 4.2475 2.47375 4.495 1.6875 4.75 C-1.2364045 6.10995558 -2.30004356 7.31585826 -4 10 C-4.99 9.67 -5.98 9.34 -7 9 C-5.88266271 7.49428343 -4.75589965 5.99555708 -3.625 4.5 C-2.99851562 3.6646875 -2.37203125 2.829375 -1.7265625 1.96875 C-1.15679688 1.3190625 -0.58703125 0.669375 0 0 Z " fill="#47A062" transform="translate(968,852)"/>
<path d="M0 0 C1.35114472 3.05744748 0.9224598 4.22040365 -0.21484375 7.453125 C-0.77745053 8.72395443 -1.35209051 9.98951218 -1.9375 11.25 C-2.22818359 11.8996875 -2.51886719 12.549375 -2.81835938 13.21875 C-3.53528975 14.81715215 -4.26628949 16.40923054 -5 18 C-5.33 18 -5.66 18 -6 18 C-6 16.35 -6 14.7 -6 13 C-5.34 13 -4.68 13 -4 13 C-4 11.35 -4 9.7 -4 8 C-3.34 8 -2.68 8 -2 8 C-2.04125 7.236875 -2.0825 6.47375 -2.125 5.6875 C-2 3 -2 3 0 0 Z " fill="#D5FBE5" transform="translate(1211,1360)"/>
<path d="M0 0 C0.99 0.33 1.98 0.66 3 1 C0.68571429 6.60300752 0.68571429 6.60300752 -2.375 8.375 C-5.02435039 9.00579771 -7.28752244 9.15499872 -10 9 C-7 7 -7 7 -4.4375 5.625 C-1.87516219 3.91677479 -1.07369252 2.8306439 0 0 Z " fill="#2E2D5F" transform="translate(699,1355)"/>
<path d="M0 0 C0 4.07624109 -1.64202171 5.45313878 -4.265625 8.4140625 C-6.61159381 10.5592502 -8.92183219 11.34039261 -12 12 C-8 8 -4 4 0 0 Z " fill="#323362" transform="translate(1046,916)"/>
<path d="M0 0 C1.8075209 2.71128135 2.89445991 5.0469136 4.0625 8.0625 C5.42417865 11.57884439 5.42417865 11.57884439 7 15 C5.1875 14.875 5.1875 14.875 3 14 C-0.24524216 9.24803827 -0.28643366 5.53771745 0 0 Z " fill="#3D995C" transform="translate(1464,1368)"/>
<path d="M0 0 C0 4.29 0 8.58 0 13 C-1.32 12.34 -2.64 11.68 -4 11 C-3.67 10.67 -3.34 10.34 -3 10 C-2.76924918 8.65252916 -2.58846937 7.29622435 -2.4375 5.9375 C-2.293125 4.638125 -2.14875 3.33875 -2 2 C-2.66 1.67 -3.32 1.34 -4 1 C-1 0 -1 0 0 0 Z " fill="#282756" transform="translate(792,1357)"/>
<path d="M0 0 C3.20726252 4.81089378 3.11575794 8.49814236 3.0625 14.25 C3.05347656 15.51328125 3.04445313 16.7765625 3.03515625 18.078125 C3.02355469 19.04234375 3.01195312 20.0065625 3 21 C2.67 21 2.34 21 2 21 C2 17.04 2 13.08 2 9 C1.34 9 0.68 9 0 9 C0 6.03 0 3.06 0 0 Z " fill="#5BA978" transform="translate(1531,1348)"/>
<path d="M0 0 C0.99 0.33 1.98 0.66 3 1 C1.824375 2.5159375 1.824375 2.5159375 0.625 4.0625 C-1.94241427 7.62633284 -3.04267757 10.73556373 -4 15 C-4.33 15 -4.66 15 -5 15 C-4.7242265 8.7950962 -3.89359206 4.89839001 0 0 Z " fill="#349458" transform="translate(1469,1343)"/>
<path d="M0 0 C0.66 0.33 1.32 0.66 2 1 C0.90536178 2.17561146 -0.20107186 3.3402489 -1.3125 4.5 C-1.92738281 5.1496875 -2.54226563 5.799375 -3.17578125 6.46875 C-5 8 -5 8 -8 8 C-7.00310315 4.31148165 -6.31080309 3.19425193 -3 1.125 C-2.01 0.75375 -1.02 0.3825 0 0 Z " fill="#E2FAEC" transform="translate(1047,1341)"/>
<path d="M0 0 C-4.86628419 2.62030687 -9.4185702 4.3283194 -15 4 C-9.93475118 -0.12723978 -6.48298273 -1.5076704 0 0 Z " fill="#3D9C62" transform="translate(1485,1323)"/>
<path d="M0 0 C0.66 0 1.32 0 2 0 C2.67260351 1.76858691 3.33788395 3.53996016 4 5.3125 C4.37125 6.29863281 4.7425 7.28476562 5.125 8.30078125 C6 11 6 11 6 14 C5.34 14 4.68 14 4 14 C3.01 11.36 2.02 8.72 1 6 C0.67 6 0.34 6 0 6 C0 4.02 0 2.04 0 0 Z " fill="#3A3A64" transform="translate(1073,788)"/>
<path d="M0 0 C0.90105469 0.00902344 1.80210938 0.01804687 2.73046875 0.02734375 C3.41753906 0.03894531 4.10460938 0.05054688 4.8125 0.0625 C4.8125 0.3925 4.8125 0.7225 4.8125 1.0625 C2.89583333 1.54166667 0.97916667 2.02083333 -0.9375 2.5 C-2.00484375 2.76683594 -3.0721875 3.03367187 -4.171875 3.30859375 C-5.97395833 3.75911458 -7.77604167 4.20963542 -9.578125 4.66015625 C-10.10921875 4.79292969 -10.6403125 4.92570312 -11.1875 5.0625 C-11.1875 4.4025 -11.1875 3.7425 -11.1875 3.0625 C-10.1975 3.0625 -9.2075 3.0625 -8.1875 3.0625 C-8.1875 2.4025 -8.1875 1.7425 -8.1875 1.0625 C-5.17259443 0.05753148 -3.14568308 -0.04085303 0 0 Z " fill="#E0FDEE" transform="translate(1483.1875,1319.9375)"/>
<path d="M0 0 C2.92586433 1.46293216 3.05946588 3.40270098 4.125 6.4375 C4.47820312 7.42621094 4.83140625 8.41492187 5.1953125 9.43359375 C6 12 6 12 6 14 C5.01 13.67 4.02 13.34 3 13 C2.05078125 10.8203125 2.05078125 10.8203125 1.3125 8.125 C1.06113281 7.24070312 0.80976562 6.35640625 0.55078125 5.4453125 C0 3 0 3 0 0 Z " fill="#3A3B65" transform="translate(1210,1150)"/>
<path d="M0 0 C0.99 0 1.98 0 3 0 C4.39300182 1.95890881 5.72245446 3.9639118 7 6 C8.62351109 7.79394446 8.62351109 7.79394446 10 9 C9.67 9.99 9.34 10.98 9 12 C7.49707257 10.18992669 5.99772829 8.37687764 4.5 6.5625 C3.6646875 5.55316406 2.829375 4.54382813 1.96875 3.50390625 C0 1 0 1 0 0 Z " fill="#DBFBE6" transform="translate(985,870)"/>
<path d="M0 0 C0.33 0 0.66 0 1 0 C1.33102914 3.6413205 1.42019439 5.41472925 -0.75 8.4375 C-3 10 -3 10 -5.25 9.75 C-6.11625 9.37875 -6.11625 9.37875 -7 9 C-6.21625 8.2575 -5.4325 7.515 -4.625 6.75 C-2.43495469 4.45566682 -1.17268614 2.87841142 0 0 Z " fill="#D4F6E0" transform="translate(1432,1390)"/>
<path d="M0 0 C0.66 0 1.32 0 2 0 C3.72293135 4.46334184 4.22240791 8.10201231 4.125 12.875 C4.10695313 14.02742188 4.08890625 15.17984375 4.0703125 16.3671875 C4.03550781 17.67042969 4.03550781 17.67042969 4 19 C3.67 19 3.34 19 3 19 C2.92652344 17.89591797 2.92652344 17.89591797 2.8515625 16.76953125 C2.77679687 15.79371094 2.70203125 14.81789063 2.625 13.8125 C2.55539062 12.84957031 2.48578125 11.88664062 2.4140625 10.89453125 C1.99682396 7.97779768 1.11984967 5.70857949 0 3 C0 2.01 0 1.02 0 0 Z " fill="#E9FEF2" transform="translate(1532,1348)"/>
<path d="M0 0 C0.99 0 1.98 0 3 0 C3.66 0.66 4.32 1.32 5 2 C7.60280568 1.67958603 7.60280568 1.67958603 10 1 C8.515 3.475 8.515 3.475 7 6 C4.50638429 4.79618552 2.31856917 3.54571278 0 2 C0 1.34 0 0.68 0 0 Z " fill="#2E2957" transform="translate(524,1339)"/>
<path d="M0 0 C5.75 3.625 5.75 3.625 8 7 C6.68 7.99 5.36 8.98 4 10 C1.125 3.375 1.125 3.375 0 0 Z " fill="#2F2B56" transform="translate(532,1328)"/>
<path d="M0 0 C3.49258493 3.49258493 4.92091065 7.5500285 5.1875 12.4375 C5.125625 13.283125 5.06375 14.12875 5 15 C2.47524538 12.47524538 1.95692129 10.26502003 0.875 6.875 C0.52179688 5.77929688 0.16859375 4.68359375 -0.1953125 3.5546875 C-0.46085937 2.71164062 -0.72640625 1.86859375 -1 1 C-0.67 0.67 -0.34 0.34 0 0 Z " fill="#29295A" transform="translate(1116,1191)"/>
<path d="M0 0 C1.7936743 1.1217963 3.5848773 2.24754483 5.375 3.375 C6.37273437 4.00148438 7.37046875 4.62796875 8.3984375 5.2734375 C11 7 11 7 13 9 C8.09447317 8.33106452 4.5835378 7.80975749 1.25 4 C0 2 0 2 0 0 Z " fill="#D8FBE4" transform="translate(1460,1394)"/>
<path d="M0 0 C0.9075 0.309375 1.815 0.61875 2.75 0.9375 C8.04506536 2.47689013 13.52225363 2.65820302 19 3 C19 3.33 19 3.66 19 4 C16.77110504 4.05428973 14.54182529 4.09292338 12.3125 4.125 C10.45044922 4.15980469 10.45044922 4.15980469 8.55078125 4.1953125 C5.18762143 4.01032021 3.0014413 3.45767895 0 2 C0 1.34 0 0.68 0 0 Z " fill="#309251" transform="translate(1049,1389)"/>
<path d="M0 0 C1.1171875 1.671875 1.1171875 1.671875 2 4 C1.3203125 6.578125 1.3203125 6.578125 0.125 9.25 C-0.26429688 10.14203125 -0.65359375 11.0340625 -1.0546875 11.953125 C-1.36664062 12.62859375 -1.67859375 13.3040625 -2 14 C-2.66 13.67 -3.32 13.34 -4 13 C-3.52140759 11.39566191 -3.04210442 9.79153584 -2.5625 8.1875 C-2.29566406 7.29417969 -2.02882813 6.40085937 -1.75390625 5.48046875 C-1.19612127 3.64526945 -0.60655425 1.81966274 0 0 Z " fill="#2B2A5C" transform="translate(812,1214)"/>
<path d="M0 0 C0.66 0.33 1.32 0.66 2 1 C1.54738642 2.43931117 1.08767021 3.87638999 0.625 5.3125 C0.36976563 6.11300781 0.11453125 6.91351562 -0.1484375 7.73828125 C-1 10 -1 10 -3 13 C-3.93045933 10.44855176 -4.08564091 9.25993522 -3.22265625 6.640625 C-2.83980469 5.85171875 -2.45695313 5.0628125 -2.0625 4.25 C-1.68222656 3.45078125 -1.30195312 2.6515625 -0.91015625 1.828125 C-0.60980469 1.22484375 -0.30945313 0.6215625 0 0 Z " fill="#272858" transform="translate(886,1019)"/>
<path d="M0 0 C1.32 1.32 2.64 2.64 4 4 C-2.6 4 -9.2 4 -16 4 C-16 3.67 -16 3.34 -16 3 C-10.72 3 -5.44 3 0 3 C0 2.01 0 1.02 0 0 Z " fill="#3B9259" transform="translate(1014,906)"/>
<path d="M0 0 C0.66 0.99 1.32 1.98 2 3 C1.125 6.6875 1.125 6.6875 0 10 C-0.66 10 -1.32 10 -2 10 C-2.33 10.66 -2.66 11.32 -3 12 C-2.49202991 7.6822542 -1.80317221 3.96697886 0 0 Z " fill="#343565" transform="translate(828,884)"/>
<path d="M0 0 C0.66 0.33 1.32 0.66 2 1 C-2.06153846 6.78461538 -2.06153846 6.78461538 -6.8125 7.875 C-7.864375 7.91625 -8.91625 7.9575 -10 8 C-6.66666667 5.33333333 -3.33333333 2.66666667 0 0 Z " fill="#C9F3D6" transform="translate(1090,1394)"/>
<path d="M0 0 C0.69480469 0.16371094 1.38960937 0.32742188 2.10546875 0.49609375 C5.2352816 1.04095996 8.13798083 1.09738483 11.3125 1.0625 C12.38113281 1.05347656 13.44976563 1.04445313 14.55078125 1.03515625 C15.76314453 1.01775391 15.76314453 1.01775391 17 1 C17 1.66 17 2.32 17 3 C11.72 3 6.44 3 1 3 C0.67 2.01 0.34 1.02 0 0 Z " fill="#2C9150" transform="translate(1481,1390)"/>
<path d="M0 0 C4 4 4 4 4.375 7.625 C4 11 4 11 2 13 C1.34 8.71 0.68 4.42 0 0 Z " fill="#C5F4D6" transform="translate(1410,1339)"/>
<path d="M0 0 C0.66 0.33 1.32 0.66 2 1 C-0.64 3.97 -3.28 6.94 -6 10 C-6.66 9.67 -7.32 9.34 -8 9 C-6.85459775 7.68712379 -5.70866567 6.37470979 -4.5625 5.0625 C-3.92441406 4.33160156 -3.28632813 3.60070313 -2.62890625 2.84765625 C-1.77458541 1.87860647 -0.91348825 0.91348825 0 0 Z " fill="#31315E" transform="translate(480,1330)"/>
<path d="M0 0 C0.99 0 1.98 0 3 0 C5.75 2.75 5.75 2.75 8 6 C7.640625 8.203125 7.640625 8.203125 7 10 C5.83043409 8.52312468 4.66441854 7.04343707 3.5 5.5625 C2.8503125 4.73878906 2.200625 3.91507813 1.53125 3.06640625 C0 1 0 1 0 0 Z " fill="#D9F8E5" transform="translate(1011,901)"/>
<path d="M0 0 C2.87255066 2.42195448 3.70838919 4.59742703 4.6875 8.1875 C4.93886719 9.08855469 5.19023438 9.98960937 5.44921875 10.91796875 C5.63097656 11.60503906 5.81273437 12.29210937 6 13 C5.01 12.67 4.02 12.34 3 12 C3 10.35 3 8.7 3 7 C2.34 7 1.68 7 1 7 C0.67 4.69 0.34 2.38 0 0 Z " fill="#3D3D66" transform="translate(1056,743)"/>
<path d="M0 0 C3.93774177 -0.36630156 5.56539771 -0.30233203 8.875 2 C9.926875 2.99 9.926875 2.99 11 4 C10.67 5.32 10.34 6.64 10 8 C9.46375 7.21625 8.9275 6.4325 8.375 5.625 C5.69757158 2.66573701 3.81566975 1.95391744 0 1 C0 0.67 0 0.34 0 0 Z " fill="#3D9B5E" transform="translate(1408,1369)"/>
<path d="M0 0 C0.66 0 1.32 0 2 0 C0.58192622 4.47238653 -1.11304374 8.71146306 -3 13 C-3.93045933 10.44855176 -4.08564091 9.25993522 -3.22265625 6.640625 C-2.83980469 5.85171875 -2.45695312 5.0628125 -2.0625 4.25 C-1.68222656 3.45078125 -1.30195312 2.6515625 -0.91015625 1.828125 C-0.60980469 1.22484375 -0.30945312 0.6215625 0 0 Z " fill="#3A9C5B" transform="translate(1228,1357)"/>
<path d="M0 0 C0.99 0.33 1.98 0.66 3 1 C0.36 3.97 -2.28 6.94 -5 10 C-5.33 9.01 -5.66 8.02 -6 7 C-5.34 7 -4.68 7 -4 7 C-4 6.01 -4 5.02 -4 4 C-3.34 4 -2.68 4 -2 4 C-2 3.34 -2 2.68 -2 2 C-1.34 2 -0.68 2 0 2 C0 1.34 0 0.68 0 0 Z " fill="#DAFCE6" transform="translate(963,855)"/>
<path d="M0 0 C1.66666667 1.66666667 3.33333333 3.33333333 5 5 C5.8971875 5.8353125 5.8971875 5.8353125 6.8125 6.6875 C8 8 8 8 8 10 C7.01 10 6.02 10 5 10 C3.61328125 8.57421875 3.61328125 8.57421875 2.3125 6.6875 C1.87550781 6.07261719 1.43851563 5.45773437 0.98828125 4.82421875 C0 3 0 3 0 0 Z " fill="#3D9F5F" transform="translate(1004,894)"/>
<path d="M0 0 C0.66 0 1.32 0 2 0 C2.75 1.6875 2.75 1.6875 3 4 C1.0625 6.75 1.0625 6.75 -1 9 C-2.25541557 5.23375329 -1.37061958 3.62811066 0 0 Z " fill="#2D2E62" transform="translate(843,844)"/>
<path d="M0 0 C2.00993705 3.01490557 2.72623341 5.2149927 3.625 8.6875 C3.88539062 9.68136719 4.14578125 10.67523437 4.4140625 11.69921875 C4.60742188 12.45847656 4.80078125 13.21773437 5 14 C4.34 14 3.68 14 3 14 C1.20724134 10.88089144 0.65709282 8.32317572 0.375 4.75 C0.30023437 3.85796875 0.22546875 2.9659375 0.1484375 2.046875 C0.09945313 1.37140625 0.05046875 0.6959375 0 0 Z " fill="#C3F1D3" transform="translate(1448,1371)"/>
<path d="M0 0 C0.66 0 1.32 0 2 0 C2.93619813 3.15506142 3.1057123 5.96586502 3.0625 9.25 C3.05347656 10.14203125 3.04445313 11.0340625 3.03515625 11.953125 C3.02355469 12.62859375 3.01195312 13.3040625 3 14 C2.67 14 2.34 14 2 14 C-0.29612756 4.58997722 -0.29612756 4.58997722 0 0 Z " fill="#565476" transform="translate(714,1340)"/>
<path d="M0 0 C0.66 0.33 1.32 0.66 2 1 C1.01 4.3 0.02 7.6 -1 11 C-1.66 10.67 -2.32 10.34 -3 10 C-2.49287967 6.28111761 -1.88391785 3.26545761 0 0 Z " fill="#2B2B5B" transform="translate(831,1165)"/>
<path d="M0 0 C0.33 0 0.66 0 1 0 C2.3442623 5.37704918 2.3442623 5.37704918 0.6875 8.375 C-1 10 -1 10 -3 10 C-2.39009109 6.44219804 -1.4216319 3.3171411 0 0 Z " fill="#373867" transform="translate(739,1121)"/>
<path d="M0 0 C0.99 0 1.98 0 3 0 C3 1.65 3 3.3 3 5 C1.02 5.99 1.02 5.99 -1 7 C-0.67 4.69 -0.34 2.38 0 0 Z " fill="#27285F" transform="translate(891,717)"/>
<path d="M0 0 C2.96404505 2.80804268 5.44499019 5.18315774 7 9 C6.01 8.67 5.02 8.34 4 8 C4 7.34 4 6.68 4 6 C2.68 5.67 1.36 5.34 0 5 C0 3.35 0 1.7 0 0 Z " fill="#D1F7DF" transform="translate(1453,1385)"/>
<path d="M0 0 C2.45823172 3.68734758 3.01242616 6.69699971 4 11 C2.68 10.34 1.36 9.68 0 9 C0 6.03 0 3.06 0 0 Z " fill="#CAF2D7" transform="translate(1019,1373)"/>
<path d="M0 0 C1.99097846 2.98646769 2.94124926 5.59687262 4 9 C2.68 9.33 1.36 9.66 0 10 C0 6.7 0 3.4 0 0 Z " fill="#D7F8E2" transform="translate(1245,1360)"/>
<path d="M0 0 C0.66 0 1.32 0 2 0 C1.55090939 1.48199902 1.09043436 2.96055236 0.625 4.4375 C0.36976563 5.26121094 0.11453125 6.08492187 -0.1484375 6.93359375 C-1 9 -1 9 -3 10 C-2.49287967 6.28111761 -1.88391785 3.26545761 0 0 Z " fill="#272453" transform="translate(714,1356)"/>
<path d="M0 0 C0.66 0 1.32 0 2 0 C1.57742724 1.4835001 1.13643678 2.96176424 0.6875 4.4375 C0.44386719 5.26121094 0.20023438 6.08492187 -0.05078125 6.93359375 C-0.36402344 7.61550781 -0.67726563 8.29742188 -1 9 C-1.99 9.33 -2.98 9.66 -4 10 C-2.99806563 6.20696275 -2.18975773 3.28463659 0 0 Z " fill="#242253" transform="translate(583,1353)"/>
<path d="M0 0 C0.33 0.66 0.66 1.32 1 2 C0.22265625 3.9453125 0.22265625 3.9453125 -0.9375 6.125 C-1.31777344 6.84945313 -1.69804688 7.57390625 -2.08984375 8.3203125 C-2.39019531 8.87460938 -2.69054688 9.42890625 -3 10 C-3.66 9.67 -4.32 9.34 -5 9 C-3.7508258 5.54074837 -2.32472205 2.85306797 0 0 Z " fill="#CFF5DD" transform="translate(1471,1344)"/>
<path d="M0 0 C1.15957207 3.47871621 0.77456651 4.34219645 -0.4375 7.6875 C-0.86869141 8.89986328 -0.86869141 8.89986328 -1.30859375 10.13671875 C-1.53675781 10.75160156 -1.76492188 11.36648438 -2 12 C-2.66 11.67 -3.32 11.34 -4 11 C-3.39301257 6.87248551 -1.96189209 3.6678852 0 0 Z " fill="#262757" transform="translate(873,1055)"/>
<path d="M0 0 C0.66 0 1.32 0 2 0 C1.44894091 3.9492568 0.61064629 7.34920174 -1 11 C-1.33 11 -1.66 11 -2 11 C-1.85892253 9.54119891 -1.71197585 8.08296449 -1.5625 6.625 C-1.48128906 5.81289063 -1.40007813 5.00078125 -1.31640625 4.1640625 C-1 2 -1 2 0 0 Z " fill="#242557" transform="translate(898,987)"/>
<path d="M0 0 C0.33 0.66 0.66 1.32 1 2 C-2.47307692 7.82980769 -2.47307692 7.82980769 -5.140625 8.69140625 C-5.75421875 8.79324219 -6.3678125 8.89507813 -7 9 C-6.02180976 7.68677212 -5.0424189 6.37443848 -4.0625 5.0625 C-3.51722656 4.33160156 -2.97195313 3.60070312 -2.41015625 2.84765625 C-1 1 -1 1 0 0 Z " fill="#4BA469" transform="translate(960,862)"/>
<path d="M0 0 C3.375 0.25 3.375 0.25 7 1 C8.4375 3.0625 8.4375 3.0625 9 5 C5.22454612 3.90931332 2.52956528 3.0916909 0 0 Z " fill="#3D9B5D" transform="translate(1466,1398)"/>
<path d="M0 0 C0.95465783 2.16967689 1.14401212 3.56328793 0.3984375 5.82421875 C-0.35870385 7.5684743 -1.17609198 9.28627131 -2 11 C-2.66 11 -3.32 11 -4 11 C-3.52269162 9.5410574 -3.04308958 8.08286504 -2.5625 6.625 C-2.29566406 5.81289062 -2.02882813 5.00078125 -1.75390625 4.1640625 C-1 2 -1 2 0 0 Z " fill="#3FA061" transform="translate(1201,1387)"/>
<path d="M0 0 C1.65 0.99 3.3 1.98 5 3 C4.67 3.99 4.34 4.98 4 6 C1.9375 6.6875 1.9375 6.6875 0 7 C0 4.69 0 2.38 0 0 Z " fill="#3F955F" transform="translate(1088,1388)"/>
<path d="M0 0 C0.99 0.33 1.98 0.66 3 1 C4.6875 4.5625 4.6875 4.5625 6 8 C5.01 8.495 5.01 8.495 4 9 C0 3.375 0 3.375 0 0 Z " fill="#302F5C" transform="translate(936,1381)"/>
<path d="M0 0 C0.66 0 1.32 0 2 0 C1.71872579 1.48117801 1.42466268 2.95993249 1.125 4.4375 C0.96257813 5.26121094 0.80015625 6.08492187 0.6328125 6.93359375 C0.31957031 7.95646484 0.31957031 7.95646484 0 9 C-0.99 9.495 -0.99 9.495 -2 10 C-1.125 2.25 -1.125 2.25 0 0 Z " fill="#2C2A58" transform="translate(964,1354)"/>
<path d="M0 0 C0.66 0 1.32 0 2 0 C2.66 2.97 3.32 5.94 4 9 C3.01 9.495 3.01 9.495 2 10 C0.68373308 6.38026598 0 3.90432869 0 0 Z " fill="#383A63" transform="translate(1233,1212)"/>
<path d="M0 0 C2.31 0.33 4.62 0.66 7 1 C6.443125 1.268125 5.88625 1.53625 5.3125 1.8125 C2.80287477 3.10122647 0.40665764 4.52926478 -2 6 C-1.34 4.02 -0.68 2.04 0 0 Z " fill="#353568" transform="translate(916,1035)"/>
<path d="M0 0 C2 3 2 3 1.8125 5.125 C1.544375 5.74375 1.27625 6.3625 1 7 C0.01 7.33 -0.98 7.66 -2 8 C-1.34 5.36 -0.68 2.72 0 0 Z M2 1 C2.99 1.495 2.99 1.495 4 2 C3.01 2.495 3.01 2.495 2 3 C2 2.34 2 1.68 2 1 Z " fill="#303365" transform="translate(907,675)"/>
<path d="M0 0 C3.3 1.65 6.6 3.3 10 5 C6 6 6 6 2.75 4.1875 C1.8425 3.465625 0.935 2.74375 0 2 C0 1.34 0 0.68 0 0 Z " fill="#CCF5D7" transform="translate(1034,1397)"/>
<path d="M0 0 C0.66 0.33 1.32 0.66 2 1 C0.9375 2.9375 0.9375 2.9375 -1 5 C-4.6875 5.75 -4.6875 5.75 -8 6 C-5.33333333 4 -2.66666667 2 0 0 Z " fill="#C7F0D5" transform="translate(1518,1396)"/>
<path d="M0 0 C0.99 0.33 1.98 0.66 3 1 C2.65120368 4.25543229 1.97866739 5.01873107 -0.5625 7.25 C-1.7690625 8.11625 -1.7690625 8.11625 -3 9 C-2.690625 8.443125 -2.38125 7.88625 -2.0625 7.3125 C-0.94238179 4.87459567 -0.43962636 2.63775814 0 0 Z " fill="#EBFDF3" transform="translate(1092,1390)"/>
<path d="M0 0 C0.66 0.33 1.32 0.66 2 1 C1 4 1 4 -1.0625 5.1875 C-1.701875 5.455625 -2.34125 5.72375 -3 6 C-3.99 5.34 -4.98 4.68 -6 4 C-4.02 2.68 -2.04 1.36 0 0 Z " fill="#2C2C5D" transform="translate(526,1384)"/>
<path d="M0 0 C3.31012244 3.31012244 3.50351065 4.53159589 4 9 C3.01 9.495 3.01 9.495 2 10 C1.34 6.7 0.68 3.4 0 0 Z " fill="#3B3B66" transform="translate(1154,1001)"/>
<path d="M0 0 C0.99 0 1.98 0 3 0 C3.66 2.64 4.32 5.28 5 8 C4.01 8.495 4.01 8.495 3 9 C2.01 6.03 1.02 3.06 0 0 Z " fill="#28285A" transform="translate(1024,953)"/>
<path d="M0 0 C-1.44253657 3.36591866 -3.33264727 5.51047079 -6 8 C-5.42415568 5.61435923 -4.77772405 3.33317216 -4 1 C-2 0 -2 0 0 0 Z " fill="#303061" transform="translate(910,883)"/>
<path d="M0 0 C2.375 0.625 2.375 0.625 5 2 C6.3125 5.125 6.3125 5.125 7 8 C1.125 3.375 1.125 3.375 0 0 Z " fill="#D4F9E2" transform="translate(978,862)"/>
<path d="M0 0 C3.04095366 3.04095366 3.68440793 3.89730308 4 8 C3.34 8.66 2.68 9.32 2 10 C1.34 6.7 0.68 3.4 0 0 Z " fill="#323261" transform="translate(1043,710)"/>
<path d="M0 0 C-1.90401138 1.90401138 -3.33425686 2.93520439 -6.046875 3.19921875 C-8.03233273 3.1886578 -10.0169914 3.09915043 -12 3 C-12 2.67 -12 2.34 -12 2 C-10.37787941 1.47026689 -8.75218416 0.95146893 -7.125 0.4375 C-6.22007813 0.14746094 -5.31515625 -0.14257812 -4.3828125 -0.44140625 C-2 -1 -2 -1 0 0 Z " fill="#C8F3D7" transform="translate(1080,1403)"/>
<path d="M0 0 C1.4835001 0.42257276 2.96176424 0.86356322 4.4375 1.3125 C5.67306641 1.67794922 5.67306641 1.67794922 6.93359375 2.05078125 C7.61550781 2.36402344 8.29742188 2.67726563 9 3 C9.33 3.99 9.66 4.98 10 6 C5.56909529 4.79157144 3.01887244 3.48331435 0 0 Z " fill="#CDF5DB" transform="translate(1043,1384)"/>
<path d="M0 0 C3.36720387 1.39332574 4.9859524 2.9789286 7 6 C4 6 4 6 1.8125 4.125 C0 2 0 2 0 0 Z " fill="#3B3961" transform="translate(529,1382)"/>
<path d="M0 0 C2.5 2.3125 2.5 2.3125 5 5 C5 5.99 5 6.98 5 8 C2.5 6.8125 2.5 6.8125 0 5 C-0.3125 2.3125 -0.3125 2.3125 0 0 Z " fill="#343460" transform="translate(485,1378)"/>
<path d="M0 0 C6.875 3.75 6.875 3.75 8 6 C6.68 6 5.36 6 4 6 C4 5.34 4 4.68 4 4 C2.68 3.67 1.36 3.34 0 3 C0 2.01 0 1.02 0 0 Z " fill="#C6F2D6" transform="translate(1503,1338)"/>
<path d="M0 0 C1.98 0 3.96 0 6 0 C6 0.66 6 1.32 6 2 C6.99 2.33 7.98 2.66 9 3 C5.79937313 4.60031344 3.27728194 3.03173691 0 2 C0 1.34 0 0.68 0 0 Z " fill="#C4F0D5" transform="translate(1500,1321)"/>
<path d="M0 0 C3.31012244 3.31012244 3.50351065 4.53159589 4 9 C3.34 9 2.68 9 2 9 C1.34 6.03 0.68 3.06 0 0 Z " fill="#383963" transform="translate(1140,964)"/>
<path d="M0 0 C0.33 0 0.66 0 1 0 C1.17942163 3.94727588 1.09350689 6.5980513 -1 10 C-1.66 10 -2.32 10 -3 10 C-2.01 6.7 -1.02 3.4 0 0 Z " fill="#3A3C69" transform="translate(896,704)"/>
<path d="M0 0 C-3.4352048 2.29013653 -4.985331 2.17842973 -9 2 C-8 0 -8 0 -6.1875 -0.6875 C-3.81180233 -1.02688538 -2.26664171 -0.72856341 0 0 Z " fill="#343663" transform="translate(945,1363)"/>
<path d="M0 0 C5.66153846 1.47692308 5.66153846 1.47692308 7.375 4.125 C7.684375 5.053125 7.684375 5.053125 8 6 C5 6 5 6 3.61328125 4.6875 C2.40885417 3.125 1.20442708 1.5625 0 0 Z " fill="#359555" transform="translate(1506,1339)"/>
<path d="M0 0 C2.875 0.25 2.875 0.25 6 1 C7.375 3.0625 7.375 3.0625 8 5 C4.62496331 3.8141763 2.35277269 2.72426311 0 0 Z " fill="#E0FBEC" transform="translate(1506,1322)"/>
<path d="M0 0 C0.66 0.66 1.32 1.32 2 2 C1.01 4.64 0.02 7.28 -1 10 C-1.33 10 -1.66 10 -2 10 C-1.85950482 8.52031676 -1.71245174 7.04125484 -1.5625 5.5625 C-1.48128906 4.73878906 -1.40007813 3.91507813 -1.31640625 3.06640625 C-1 1 -1 1 0 0 Z " fill="#2B2959" transform="translate(816,1205)"/>
<path d="M0 0 C2.4375 0.6875 2.4375 0.6875 5 2 C5.8125 4.625 5.8125 4.625 6 7 C1.125 2.25 1.125 2.25 0 0 Z " fill="#DDFBE7" transform="translate(995,882)"/>
<path d="M0 0 C2.89932357 2.39509338 3.50168276 4.31245243 4 8 C3.01 7.67 2.02 7.34 1 7 C0.67 4.69 0.34 2.38 0 0 Z " fill="#373864" transform="translate(1102,864)"/>
<path d="M0 0 C0.66 0 1.32 0 2 0 C2 1.98 2 3.96 2 6 C1.01 6.33 0.02 6.66 -1 7 C-0.67 4.69 -0.34 2.38 0 0 Z " fill="#2C2E61" transform="translate(877,754)"/>
</svg>
